<svg width="117" height="80" viewBox="0 0 117 80" fill="none" xmlns="http://www.w3.org/2000/svg">
<path fill-rule="evenodd" clip-rule="evenodd" d="M67.6739 34.9692C71.1397 35.0522 73.5508 35.111 75.2219 35.1525C77.7977 35.2165 78.6153 35.2394 78.8252 35.245C78.7608 35.2424 78.6972 35.2382 78.8868 35.2382C78.9946 35.2382 79.1013 35.2158 79.2 35.1725C79.2499 35.1506 79.2972 35.1235 79.3412 35.092C79.3843 35.061 79.4241 35.0256 79.4601 34.9863C79.4949 34.9482 79.5257 34.9072 79.5522 34.8635C79.5813 34.8154 79.6052 34.7643 79.6233 34.7109C79.6581 34.6088 79.6711 34.5007 79.6618 34.3932C79.5008 32.4592 79.5846 30.5741 79.669 28.6752C79.7497 26.86 79.831 25.0324 79.6995 23.1374C79.6872 22.9545 79.6108 22.7822 79.4838 22.6501C79.4108 22.5744 79.3238 22.5148 79.2284 22.4741L79.2048 22.4645L79.1744 22.4535L79.1501 22.4457L79.1311 22.4401L79.1094 22.4345C79.0917 22.4301 79.0737 22.4262 79.0556 22.423C79.0389 22.4203 79.0221 22.4179 79.0052 22.4162C76.9853 22.2077 74.9943 22.2685 73.0111 22.329H72.9393C71.3138 22.3793 69.6936 22.4296 68.0668 22.3246C67.9625 22.3178 67.8578 22.332 67.7591 22.3664C67.6603 22.4008 67.5696 22.455 67.4922 22.5253L67.4698 22.5466L67.4448 22.5722C67.4353 22.5824 67.4261 22.5929 67.4171 22.6037C67.3851 22.6423 67.3569 22.6838 67.3328 22.728C67.3243 22.7436 67.3163 22.7595 67.3088 22.7758C67.2651 22.8708 67.241 22.9736 67.238 23.0781L67.2267 23.4831C67.2201 23.7292 67.214 23.9753 67.2084 24.2216L67.1945 24.8705C67.188 25.1828 67.1822 25.495 67.1766 25.8075L67.1597 26.7692C67.1172 29.2324 67.0748 31.6948 66.9151 34.1403C66.9086 34.245 66.9232 34.35 66.9581 34.4489C66.993 34.5478 67.0475 34.6386 67.1183 34.716C67.1583 34.7597 67.2029 34.7985 67.2513 34.8317C67.2681 34.8432 67.2853 34.8542 67.3029 34.8644L67.3366 34.8827L67.3704 34.8991C67.4658 34.9426 67.5691 34.9665 67.6739 34.9692ZM78.0554 33.664L68.5162 33.4352H68.5107C68.6356 31.1923 68.674 28.9401 68.712 26.7145L68.7127 26.6713C68.7217 26.1452 68.7306 25.6205 68.7408 25.0978C68.7485 24.6996 68.7569 24.3027 68.7664 23.9069C70.1995 23.9645 71.6657 23.9238 73.1194 23.8832C74.8511 23.8349 76.5651 23.787 78.1845 23.9069C78.2523 25.5065 78.1835 27.0485 78.1143 28.6005C78.0407 30.2497 77.9666 31.9106 78.0554 33.664Z" fill="#9E7D43"/>
<path d="M77.5844 44.8476C77.4823 44.8476 77.3812 44.8273 77.2868 44.7883C77.1924 44.7492 77.1067 44.6918 77.0345 44.6198C76.9623 44.5475 76.905 44.4618 76.866 44.3674C76.844 44.3144 76.828 44.2592 76.8182 44.2031C76.8106 44.1591 76.8068 44.1147 76.8068 44.0698V40.7546C76.8068 40.5485 76.8887 40.3505 77.0345 40.2048C77.1038 40.1354 77.1848 40.0805 77.2729 40.0419C77.3702 39.9994 77.4761 39.977 77.5844 39.977C77.7906 39.977 77.9885 40.059 78.1343 40.2048C78.2143 40.2848 78.2751 40.3805 78.3137 40.4846C78.3454 40.5702 78.3621 40.6616 78.3621 40.7546V44.0698C78.3621 44.1721 78.342 44.2731 78.3029 44.3674C78.2638 44.4618 78.2065 44.5475 78.1343 44.6198C78.0621 44.6918 77.9764 44.7492 77.882 44.7883C77.8343 44.808 77.7848 44.8229 77.7342 44.8329C77.685 44.8427 77.6348 44.8476 77.5844 44.8476Z" fill="#9E7D43"/>
<path fill-rule="evenodd" clip-rule="evenodd" d="M57.1041 60.4277C56.9294 60.4277 56.7598 60.3688 56.6224 60.2609C55.7761 59.5947 55.2046 58.5859 54.5675 57.4609C52.9217 54.5549 50.8372 50.8742 42.4415 50.3234C33.236 49.7233 30.1899 52.7453 23.5111 59.3727C23.4311 59.4523 23.3349 59.5134 23.2289 59.5519C23.2113 59.5583 23.1934 59.5641 23.1754 59.5693C23.1598 59.5737 23.1441 59.5776 23.1283 59.581C23.1004 59.5871 23.0721 59.5917 23.0437 59.5947C22.9953 59.5998 22.9464 59.6003 22.8976 59.5961C21.4443 59.4736 20.1041 59.331 18.8024 59.1926L18.7958 59.1918L18.7829 59.1904L18.7767 59.1896C15.75 58.8671 12.9294 58.5666 9.37591 58.5871C6.85454 58.5871 3.97527 58.5441 2.03246 56.9106C0.525563 55.6432 -0.149852 53.6037 0.0277604 50.8534L0.028737 50.819L0.0314225 50.7829L0.0360001 50.745C0.0402726 50.7158 0.046193 50.6867 0.0538224 50.6584L0.0654191 50.6193C0.429738 48.7192 4.37304 29.6105 11.2738 17.4072C11.2923 17.3666 11.3144 17.3278 11.3397 17.2909C11.5024 17.0051 11.6667 16.7231 11.8327 16.4452C13.6033 13.4853 15.4412 11.2033 17.2898 9.70183C28.3063 0.738455 58.3608 -0.814035 75.873 0.326834L83.4775 0.830008C103.866 2.15935 110.297 6.41082 109.934 18.3207L109.93 18.4496L109.925 18.5915L109.916 18.8095C109.909 18.9587 109.901 19.1054 109.893 19.2475L109.867 19.693L109.867 19.6982C109.573 24.2184 108.963 33.6127 103.57 46.5292C103.272 47.2358 102.966 47.9391 102.653 48.6391L108.36 48.7438C108.478 48.746 108.594 48.7748 108.7 48.8285C108.805 48.8823 108.897 48.9592 108.968 49.0536C109.039 49.1481 109.087 49.2575 109.11 49.3735C109.132 49.4897 109.128 49.6093 109.097 49.7233L106.907 57.7878H115.378C115.584 57.7878 115.782 57.8698 115.928 58.0156C116.074 58.1613 116.156 58.3593 116.156 58.5654C116.156 58.7717 116.074 58.9694 115.928 59.1154C115.782 59.2612 115.584 59.3432 115.378 59.3432H105.903C99.1316 59.4567 97.2048 59.4926 96.7396 59.5016H96.7003C96.7656 59.4994 96.811 59.4965 96.6144 59.4965C96.6011 59.4965 96.588 59.4963 96.5748 59.4955C91.2801 59.6193 86.6777 59.727 82.68 59.8215C82.6371 59.8298 82.5934 59.8346 82.5491 59.8356C73.1952 60.051 67.8429 60.1757 64.7895 60.2475L62.159 60.311C58.5304 60.3986 57.3202 60.4277 57.1041 60.4277ZM13.3399 16.9582C14.9724 14.2822 16.6313 12.2468 18.2827 10.9074C28.8768 2.28582 59.1761 0.800467 75.7842 1.87664L79.0101 2.08611C80.9051 2.2094 83.0018 2.34734 83.3779 2.37713C104.451 3.75286 108.481 8.37688 108.404 17.5212C97.1348 17.4714 92.5047 17.4186 87.2908 17.3593C78.0203 17.2538 66.9043 17.1274 13.3399 16.9582ZM12.438 18.5121C28.1261 18.6157 45.9711 18.7331 62.1346 18.8342L60.724 45.83C21.5967 45.5722 6.56926 45.4826 2.82714 45.4611C3.19024 43.9797 3.63012 42.2663 4.14367 40.4059L17.7189 40.4953C22.2465 40.5253 22.8198 40.528 22.8198 40.528L22.7659 40.5268C22.745 40.5263 22.7432 40.5258 22.8276 40.5258C23.0339 40.5258 23.2316 40.4438 23.3775 40.298C23.4415 40.2341 23.4932 40.1601 23.5311 40.0798C23.5605 40.0173 23.5816 39.9511 23.5936 39.8827C23.6013 39.8386 23.6053 39.7936 23.6053 39.7482C23.6053 39.6501 23.5867 39.5539 23.5516 39.4643C23.5128 39.3654 23.4539 39.2746 23.3775 39.1982C23.2316 39.0524 23.0339 38.9704 22.8276 38.9704L4.58086 38.8505C5.10393 37.0229 5.69201 35.0846 6.34234 33.1078C21.7817 33.2033 16.9784 33.1799 17.9328 33.1799C18.1308 33.1681 18.3169 33.0812 18.453 32.9369C18.589 32.7927 18.6648 32.6017 18.6648 32.4035C18.6648 32.205 18.589 32.0143 18.453 31.87C18.3729 31.7851 18.2754 31.7199 18.1683 31.6784C18.0936 31.6496 18.0142 31.632 17.9328 31.6271C14.6515 31.6064 12.2419 31.5907 10.477 31.579L6.86382 31.5549C7.52117 29.6366 8.23559 27.6999 9.00469 25.809C30.7483 26.0077 30.8556 25.9633 30.8877 25.9496C30.8921 25.9479 30.895 25.9467 30.9488 25.9467C30.9955 25.947 31.0419 25.9428 31.0873 25.9347C31.1642 25.9211 31.2385 25.8959 31.3077 25.8603C31.3521 25.8373 31.3945 25.8102 31.434 25.779C31.4494 25.7668 31.4644 25.7538 31.4789 25.7404L31.4985 25.7219C31.6448 25.5771 31.7276 25.3801 31.7291 25.1745C31.7311 25.0668 31.7125 24.9609 31.6752 24.862C31.6384 24.7643 31.5833 24.6735 31.512 24.5947C31.3685 24.4362 31.1699 24.3386 30.9568 24.3215H9.62548C10.4992 22.2819 11.4377 20.3176 12.438 18.5121ZM2.45379 47.0151C42.3303 47.2756 57.2208 47.3654 60.6427 47.3857L60.0456 58.8041L57.3867 58.8669C56.8722 58.3722 56.4427 57.6149 55.9419 56.7321C54.2586 53.7643 51.7702 49.3771 42.541 48.7734C32.8296 48.1437 29.3987 51.3459 22.6742 58.0058C21.4886 57.9008 20.297 57.7753 19.102 57.6493C17.2675 57.456 15.4247 57.2617 13.5818 57.1393C11.5881 57.0095 10.3965 57.0151 9.38036 57.02C8.60943 57.0236 7.93944 57.0268 7.09673 56.9699C3.13842 56.7116 1.31133 55.1669 1.58037 50.9665C1.5985 50.873 1.89611 49.3832 2.45379 47.0151ZM63.6993 18.8439L68.02 18.8705C73.3357 18.9074 78.7402 18.9416 83.9188 18.9692L83.8482 20.1264L83.7213 22.2682C83.6784 23.0046 83.6379 23.7082 83.5987 24.3908C83.3458 28.7917 83.1432 32.3161 82.6487 38.0502C82.3771 40.7414 82.2159 43.4421 82.1654 46.1454C82.1629 46.1708 82.1616 46.1967 82.1616 46.2223C82.1616 46.2387 82.1621 46.2551 82.1631 46.2712C82.1507 46.9824 82.146 47.6938 82.149 48.4054C82.1504 48.7568 82.1537 49.1081 82.1589 49.4594L82.1605 49.8508L82.1628 50.2092V50.2272L82.1647 50.5471C82.1655 50.716 82.1656 50.8632 82.1639 51.0104C82.1545 51.8888 82.0886 52.7668 81.7876 58.2883L61.6059 58.7619C63.427 23.9057 63.6775 19.1476 63.6775 19.1476L63.6651 19.405C63.6463 19.7873 63.6204 20.3129 63.6993 18.8439ZM83.717 49.4648C83.7049 48.6432 83.7032 47.8217 83.7119 47.0002H101.675C100.8 49.0151 99.8632 51.0026 98.8671 52.9599C98.0472 54.5656 97.1654 56.1938 96.2303 57.8293L96.1596 57.9521L83.3505 58.2543L83.5397 54.7648L83.5401 54.759L83.5425 54.7158L83.5436 54.6967L83.6188 53.3119L83.6523 52.675L83.6758 52.204C83.7006 51.6855 83.7115 51.3615 83.7159 51.0373C83.7214 50.6362 83.717 50.2348 83.717 49.4648ZM83.7406 45.4448H102.334C102.722 44.5021 103.083 43.579 103.421 42.676C103.632 42.1088 103.834 41.5497 104.028 40.9987C103.083 40.9943 101.356 40.9877 98.2477 40.978C98.0415 40.978 97.8437 40.8959 97.6979 40.7502C97.552 40.6042 97.4701 40.4064 97.4701 40.2001C97.4701 39.9941 97.552 39.7961 97.6979 39.6503C97.8437 39.5046 98.0415 39.4225 98.2477 39.4225H98.3544L98.3263 39.423H98.3131C98.2709 39.4233 98.2177 39.4235 98.2664 39.4245L98.328 39.4252L98.6375 39.4277C98.9529 39.4296 99.5048 39.4323 100.447 39.4362C101.382 39.4399 102.701 39.4445 104.554 39.4504C105.225 37.4116 105.771 35.4909 106.217 33.6962C104.612 33.6887 100.501 33.6696 90.2505 33.6237C90.0525 33.612 89.8664 33.5253 89.7303 33.381C89.5943 33.2365 89.5185 33.0458 89.5185 32.8473C89.5185 32.6491 89.5943 32.4582 89.7303 32.3139C89.8664 32.1696 90.0525 32.0827 90.2505 32.0712C90.3387 32.0712 90.3506 32.071 90.3359 32.0705L92.8619 32.081C95.0909 32.091 99.1724 32.1091 106.587 32.141C107.066 30.0256 107.405 28.1039 107.651 26.3906C106.412 26.3847 103.55 26.3718 97.1606 26.3449C96.9544 26.3449 96.7566 26.2629 96.6108 26.1171C96.4649 25.9714 96.383 25.7734 96.383 25.5673C96.383 25.4677 96.4021 25.37 96.4383 25.2792C96.477 25.1821 96.5353 25.0927 96.6108 25.0173C96.7566 24.8715 96.9544 24.7895 97.1606 24.7895C97.63 24.7895 96.865 24.7861 97.2902 24.7883C97.7941 24.7912 99.9702 24.8017 107.857 24.8351C108.114 22.7184 108.231 20.9826 108.32 19.662L108.325 19.5907C108.337 19.3989 108.347 19.2284 108.355 19.079C104.269 19.0741 96.0186 19.0344 85.4824 18.9745C85.3592 20.9291 85.2578 22.685 85.1598 24.383L85.1597 24.3859C84.9152 28.623 84.6915 32.4985 84.2013 38.1928C83.9582 40.6039 83.8045 43.0231 83.7406 45.4448ZM100.518 53.1393C99.7189 54.7302 98.8813 56.3014 98.0059 57.8522L97.9679 57.9199L105.292 57.7988L107.335 50.2802L101.95 50.1808C101.497 51.1574 101.019 52.1437 100.518 53.1393Z" fill="#9E7D43"/>
<path fill-rule="evenodd" clip-rule="evenodd" d="M40.8727 65.2067C38.5747 65.2067 36.6453 63.5922 36.8202 60.9013C36.9817 58.4391 38.7389 57.1906 41.236 57.352C42.2895 57.4208 43.2726 57.9047 43.9699 58.6974C46.206 61.2619 44.5377 65.2067 40.8727 65.2067ZM40.8027 58.902C39.3523 58.902 38.467 59.529 38.381 61.0117C38.3164 61.9911 38.6501 62.7526 39.3416 63.2155C39.7627 63.4741 40.2419 63.623 40.7355 63.6489C41.229 63.6747 41.7212 63.5766 42.167 63.3635C43.5932 62.6584 43.8111 60.8825 42.8129 59.7494C42.6031 59.507 42.3476 59.308 42.0608 59.1645C41.774 59.0209 41.4617 58.9352 41.1418 58.9128C41.1526 58.9128 41.0857 58.9094 40.9997 58.9062C40.9366 58.904 40.8631 58.902 40.8027 58.902Z" fill="#9E7D43"/>
<path fill-rule="evenodd" clip-rule="evenodd" d="M31.465 64.5029C31.0193 63.1677 30.8493 61.7519 30.9702 60.3415C31.355 54.4836 35.2891 51.3674 41.7607 51.7873C47.1424 52.1371 51.1492 56.9457 50.8209 61.9614C50.7868 62.4872 50.715 62.9938 50.6084 63.4794C52.7861 63.4404 54.7793 63.4033 56.6044 63.3691L56.9506 63.3625C72.9226 63.0627 75.7916 63.009 76.8982 64.1249C77.0536 64.2856 77.1735 64.4772 77.2499 64.6872C77.3039 64.8354 77.3354 64.9904 77.3438 65.1471C77.3453 65.1735 77.346 65.2001 77.3461 65.2267L77.3458 65.2648C77.3453 65.2912 77.344 65.3176 77.3422 65.3439C77.2938 67.1657 75.5662 67.3137 74.3015 67.4213C73.2494 67.5102 72.1623 67.6017 71.4304 68.2824C72.7493 68.8664 74.6295 68.7997 76.4431 68.7355C79.3582 68.6325 82.1012 68.5353 82.0648 71.1562C82.0325 73.4865 77.8831 73.8713 71.1128 74.2319C64.7651 74.5683 64.3856 74.6733 63.5111 76.5246C62.5047 78.6774 61.1727 80.1735 53.1592 79.9582C44.6019 79.7419 43.5439 79.8547 42.7632 79.9379C42.291 79.9882 41.9203 80.0278 40.0519 79.977C37.17 79.9018 36.2847 79.0297 35.4155 77.8996C34.8235 77.122 34.3553 76.5085 32.0331 76.4465C31.6279 76.435 31.1287 76.4589 30.5796 76.4853C28.6741 76.5771 26.1684 76.6974 24.913 75.4672C24.6558 75.2111 24.4559 74.9035 24.327 74.5641C24.2631 74.3962 24.2173 74.2223 24.19 74.0458C24.1622 73.8659 24.1537 73.6828 24.165 73.4999C24.185 72.7363 24.5035 72.1984 24.7974 71.7023C24.8577 71.6008 24.9169 71.5009 24.9722 71.4011C24.1894 70.7045 23.0865 70.8451 21.8458 71.0036C20.101 71.2262 18.0839 71.4838 16.3022 69.496C15.172 68.2206 15.3066 66.2131 16.4072 65.2524C17.6174 64.1972 19.6996 64.3945 21.9892 64.6113C22.8407 64.6918 23.7209 64.7751 24.5955 64.7978C25.4353 64.8202 27.3857 64.7167 29.3725 64.6113L29.3833 64.6105C30.0889 64.5729 30.7989 64.5353 31.465 64.5029ZM33.2482 64.8195C32.6916 63.6139 32.4127 62.1601 32.5228 60.4545C32.8727 55.2048 36.4327 52.9982 41.6584 53.3505C46.1898 53.6467 49.5373 57.7287 49.2682 61.8727C49.2197 62.6274 49.0813 63.3251 48.8671 63.966C48.8571 63.9889 48.8482 64.0124 48.8404 64.0363C47.0066 69.3722 39.9606 70.5749 35.7891 67.7995C34.8219 67.144 34.0004 66.268 33.4203 65.1679C33.3769 65.0827 33.3352 64.996 33.2952 64.9081C33.2888 64.894 33.282 64.8801 33.275 64.8664C33.2666 64.8505 33.2577 64.8349 33.2482 64.8195Z" fill="#9E7D43"/>
</svg>
