<svg width="20" height="15" viewBox="0 0 20 15" fill="none" xmlns="http://www.w3.org/2000/svg">
<path fill-rule="evenodd" clip-rule="evenodd" d="M17.8153 0.420369C18.6763 0.652068 19.353 1.33227 19.5835 2.19783C20 3.76511 20 7.03704 20 7.03704C20 7.03704 20 10.309 19.5818 11.8762C19.3513 12.7418 18.6747 13.422 17.8136 13.6537C16.2545 14.0741 10 14.0741 10 14.0741C10 14.0741 3.74547 14.0741 2.18637 13.6537C1.32532 13.422 0.648666 12.7418 0.418176 11.8762C0 10.309 0 7.03704 0 7.03704C0 7.03704 0 3.76511 0.418176 2.19783C0.648666 1.33227 1.32532 0.652068 2.18637 0.420369C3.74547 0 10 0 10 0C10 0 16.2545 0 17.8153 0.420369ZM13.1971 7.03689L7.99951 4.02148V10.0523L13.1971 7.03689Z" fill="white"/>
</svg>
