<svg width="242" height="54" viewBox="0 0 242 54" fill="none" xmlns="http://www.w3.org/2000/svg">
<g clip-path="url(#clip0_309_201)">
<path d="M24.4214 0L-2.22021 15.1733V41.628H8.2031C11.5052 41.6267 14.7289 42.628 17.443 44.498C20.1571 46.368 22.2322 49.0175 23.3906 52.0921C23.6308 52.7197 23.8275 53.3629 23.9791 54.0173H24.8637C25.0165 53.3693 25.212 52.732 25.4488 52.1094C26.6092 49.0349 28.6858 46.3857 31.4009 44.5158C34.116 42.646 37.3404 41.6445 40.6432 41.6453H51.063V15.1733L24.4214 0Z" fill="#9E7D43"/>
<path d="M30.5403 26.9289C30.192 26.458 30.1502 26.1983 33.5771 23.5529C37.0039 20.9074 36.586 17.9261 35.4368 17.0985C33.8557 15.9593 32.3025 18.6532 31.4701 17.5833C30.6378 16.5133 34.4686 12.4239 31.4701 10.7203C30.2895 10.052 29.1856 11.8872 28.012 11.257C26.8383 10.6268 27.4199 6.62744 24.4214 6.62744C21.5379 6.62744 22.008 10.6233 20.8344 11.257C19.6608 11.8907 18.5568 10.0416 17.3762 10.7341C14.3777 12.4378 18.205 16.5272 17.3762 17.5971C16.5473 18.6671 14.9872 15.9731 13.4096 17.1123C12.2568 17.9399 11.8424 20.9213 15.2692 23.5667C18.6961 26.2122 18.6613 26.4719 18.306 26.9428C17.707 27.7011 14.7956 25.2392 14.1479 27.0501C12.9046 30.4712 20.2145 32.5246 19.72 33.7885C19.2254 35.0523 17.1707 33.231 16.6274 35.1181C16.011 37.2788 19.9637 39.1694 20.6986 39.668C21.4334 40.1667 24.0767 41.0912 24.1254 43.7193C24.1742 46.3475 23.5299 47.4382 24.4214 47.369C25.3164 47.4417 24.6687 46.3302 24.7174 43.7193C24.7662 41.1085 27.4095 40.1667 28.1443 39.668C28.8791 39.1694 32.8318 37.2788 32.2119 35.1181C31.6721 33.2414 29.6104 35.0558 29.1229 33.7885C28.6353 32.5211 35.9418 30.4712 34.695 27.0501C34.0472 25.2392 31.1358 27.7011 30.5403 26.9289Z" fill="white"/>
<path d="M110.067 19.7612C103.234 19.7612 98.2084 24.2384 98.2084 30.7759C98.2084 38.1237 103.293 42.3308 110.08 42.3308C116.868 42.3308 121.956 38.1237 121.956 30.7759C121.942 24.2384 116.899 19.7612 110.067 19.7612ZM110.558 38.2241C108.071 38.2968 106.469 35.8591 106.323 31.0218C106.176 26.1844 107.716 23.9822 109.596 23.8333C111.888 23.6567 113.511 25.5958 113.803 30.4123C114.096 35.2289 113.041 38.1514 110.558 38.2241Z" fill="white"/>
<path d="M122.646 24.9554L134.256 14.0342V20.4609H140.525V24.9623H134.194V33.6362C134.194 35.5719 135.374 37.3932 137.732 37.3932C140.142 37.3932 141.138 36.5068 142.029 35.7554C142.029 35.7554 141.284 42.3344 134.194 42.3344C126.912 42.3344 126.532 36.1293 126.532 35.0628V24.9554H122.646Z" fill="white"/>
<path d="M203.382 24.9554L214.993 14.0342V20.4609H221.261V24.9623H214.93V33.6362C214.93 35.5719 216.111 37.3932 218.468 37.3932C220.882 37.3932 221.878 36.5068 222.766 35.7554C222.766 35.7554 222.024 42.3344 214.93 42.3344C207.651 42.3344 207.268 36.1293 207.268 35.0628V24.9554H203.382Z" fill="white"/>
<path d="M187.815 21.1878V33.546C187.815 34.8791 188.553 36.7731 190.67 36.7731C192.788 36.7731 193.526 35.44 193.526 35.44V25.3118C193.526 24.505 193.505 21.2085 193.505 21.2085L201.167 21.1878L201.226 41.6174L193.512 41.652V37.3964C193.512 37.3964 192.008 42.2441 187.244 42.2441C183.085 42.2441 180.202 39.6645 180.202 35.2634V21.167L187.815 21.1878Z" fill="white"/>
<path d="M224.772 32.8951L225.367 40.1355C227.67 41.5809 230.34 42.3425 233.064 42.3308C237.661 42.3308 242 39.9312 242 35.3086C242 30.6859 239.52 29.3736 237.163 28.3209C234.805 27.2683 233.287 26.5515 232.635 26.2434C231.984 25.9352 231.343 25.3431 231.343 24.5986C231.343 23.8541 232.04 23.3417 233.022 23.3417C234.004 23.3417 237.156 23.9061 240.927 28.1894V21.7731C240.927 21.7731 238.42 19.7959 234.004 19.7959C229.588 19.7959 225.172 22.0812 225.172 26.9878C225.172 30.7967 227.418 32.019 228.787 32.7635C230.156 33.508 232.966 34.7684 233.823 35.1527C234.68 35.5371 235.864 35.8972 235.864 37.258C235.864 38.1826 234.934 38.5946 234.122 38.5946C233.311 38.5946 231.615 38.2103 229.989 37.2338C228.362 36.2573 224.772 32.8951 224.772 32.8951Z" fill="white"/>
<path d="M95.0741 11.9668H86.9736C86.9736 11.9668 86.9945 19.408 87.0084 24.3008H77.2294V15.097C77.2294 14.2383 77.2294 11.9806 77.2294 11.9806H69.2056V41.6417H77.2398C77.2398 41.6417 77.2398 38.3833 77.2398 37.7878V28.5875H87.0293C87.0293 33.4352 87.0711 41.6278 87.0711 41.6278H95.081L95.0741 11.9668Z" fill="white"/>
<path d="M176.385 41.6418C176.385 41.6418 176.35 30.8245 176.35 27.0675C176.35 23.3106 174.243 19.8306 169.524 19.8306C164.725 19.8306 162.636 24.3113 162.636 24.3113C162.636 24.3113 162.636 18.2759 162.636 18.2378C162.636 14.1623 158.739 11.3125 154.936 11.3125L154.971 41.6349H162.601C162.601 41.6349 162.577 39.3738 162.577 38.2034V26.7767C162.954 26.32 163.426 25.9497 163.96 25.6909C164.494 25.4321 165.078 25.2911 165.673 25.2774C168.18 25.2774 168.723 27.3896 168.723 28.74C168.723 30.0904 168.723 41.6349 168.723 41.6349L176.385 41.6418Z" fill="white"/>
</g>
<defs>
<clipPath id="clip0_309_201">
<rect width="242" height="54" fill="white"/>
</clipPath>
</defs>
</svg>
