<svg width="242" height="54" fill="none" xmlns="http://www.w3.org/2000/svg"><g clip-path="url(#a)"><path d="M24.421 0-2.22 15.173v26.455H8.203c3.302-.001 6.526 1 9.24 2.87a16.132 16.132 0 0 1 5.948 7.594c.24.628.437 1.27.588 1.925h.885c.152-.648.348-1.285.585-1.908a16.146 16.146 0 0 1 5.952-7.593 16.29 16.29 0 0 1 9.242-2.87h10.42V15.172L24.421 0Z" fill="#9E7D43"/><path d="M30.54 26.929c-.348-.471-.39-.73 3.037-3.376s3.009-5.627 1.86-6.454c-1.581-1.14-3.134 1.554-3.967.484-.832-1.07 2.999-5.16 0-6.863-1.18-.668-2.284 1.167-3.458.537-1.174-.63-.592-4.63-3.59-4.63-2.884 0-2.414 3.996-3.588 4.63-1.173.634-2.277-1.215-3.458-.523-2.998 1.704.829 5.793 0 6.863-.829 1.07-2.389-1.624-3.966-.485-1.153.828-1.568 3.81 1.86 6.455 3.426 2.645 3.391 2.905 3.036 3.376-.599.758-3.51-1.704-4.158.107-1.243 3.421 6.067 5.475 5.572 6.738-.495 1.264-2.55-.557-3.093 1.33-.616 2.16 3.337 4.051 4.072 4.55.734.499 3.378 1.423 3.426 4.051.05 2.628-.595 3.72.296 3.65.895.073.248-1.039.296-3.65.05-2.61 2.693-3.552 3.427-4.051.735-.499 4.688-2.39 4.068-4.55-.54-1.877-2.602-.062-3.09-1.33-.487-1.267 6.82-3.317 5.573-6.738-.648-1.81-3.56.651-4.155-.121Zm79.527-7.168c-6.833 0-11.859 4.477-11.859 11.015 0 7.348 5.085 11.555 11.872 11.555 6.788 0 11.876-4.207 11.876-11.555-.014-6.538-5.057-11.015-11.889-11.015Zm.491 18.463c-2.487.073-4.089-2.365-4.235-7.202-.147-4.838 1.393-7.04 3.273-7.189 2.292-.176 3.915 1.763 4.207 6.58.293 4.816-.762 7.738-3.245 7.811Zm12.088-13.269 11.61-10.92v6.426h6.269v4.501h-6.331v8.674c0 1.936 1.18 3.757 3.538 3.757 2.41 0 3.406-.886 4.297-1.638 0 0-.745 6.58-7.835 6.58-7.282 0-7.662-6.206-7.662-7.272V24.955h-3.886Zm80.736 0 11.611-10.92v6.426h6.268v4.501h-6.331v8.674c0 1.936 1.181 3.757 3.538 3.757 2.414 0 3.41-.886 4.298-1.638 0 0-.742 6.58-7.836 6.58-7.279 0-7.662-6.206-7.662-7.272V24.955h-3.886Zm-15.567-3.767v12.358c0 1.333.738 3.227 2.855 3.227 2.118 0 2.856-1.333 2.856-1.333V25.312c0-.807-.021-4.104-.021-4.104l7.662-.02.059 20.43-7.714.034v-4.256s-1.504 4.848-6.268 4.848c-4.159 0-7.042-2.58-7.042-6.98V21.166l7.613.02Zm36.957 11.707.595 7.24a14.364 14.364 0 0 0 7.697 2.196c4.597 0 8.936-2.4 8.936-7.022 0-4.623-2.48-5.935-4.837-6.988a219.39 219.39 0 0 1-4.528-2.078c-.651-.308-1.292-.9-1.292-1.644 0-.745.697-1.257 1.679-1.257.982 0 4.134.564 7.905 4.847v-6.416s-2.507-1.977-6.923-1.977-8.832 2.285-8.832 7.192c0 3.809 2.246 5.031 3.615 5.776 1.369.744 4.179 2.004 5.036 2.389.857.384 2.041.744 2.041 2.105 0 .925-.93 1.337-1.742 1.337-.811 0-2.507-.385-4.133-1.361-1.627-.977-5.217-4.339-5.217-4.339ZM95.074 11.967h-8.1l.034 12.334H77.23V11.98h-8.023v29.66h8.034V28.589h9.79c0 4.847.041 13.04.041 13.04h8.01l-.007-29.661Zm81.311 29.675s-.035-10.818-.035-14.575c0-3.756-2.107-7.236-6.826-7.236-4.799 0-6.888 4.48-6.888 4.48v-6.073c0-4.076-3.897-6.925-7.7-6.925l.035 30.322h7.63s-.024-2.261-.024-3.432V26.777a4.127 4.127 0 0 1 3.096-1.5c2.507 0 3.05 2.113 3.05 3.463v12.895l7.662.007Z" fill="#fff"/></g><defs><clipPath id="a"><path fill="#fff" d="M0 0h242v54H0z"/></clipPath></defs></svg>