<svg width="117" height="80" fill="none" xmlns="http://www.w3.org/2000/svg"><path fill-rule="evenodd" clip-rule="evenodd" d="M67.674 34.97a5228.88 5228.88 0 0 1 11.151.275c-.064-.003-.128-.007.062-.007a.78.78 0 0 0 .775-.845c-.161-1.934-.077-3.819.007-5.718.08-1.815.162-3.643.03-5.538a.778.778 0 0 0-.47-.663l-.024-.01-.03-.01-.025-.008-.019-.006-.022-.006a.803.803 0 0 0-.104-.018c-2.02-.208-4.01-.148-5.994-.087h-.072c-1.625.05-3.245.1-4.872-.004a.78.78 0 0 0-.575.2l-.022.022-.025.025a.76.76 0 0 0-.136.204.777.777 0 0 0-.071.302l-.011.405-.019.739-.013.648c-.007.313-.013.625-.018.938l-.017.961c-.043 2.463-.085 4.926-.245 7.371a.782.782 0 0 0 .388.724l.034.019.033.016a.78.78 0 0 0 .304.07Zm10.381-1.306-9.539-.229h-.005c.125-2.243.163-4.495.201-6.72v-.044l.029-1.573.025-1.191c1.433.058 2.9.017 4.353-.024 1.732-.048 3.446-.096 5.066.024.067 1.6-.002 3.142-.07 4.694-.074 1.649-.148 3.31-.06 5.063Z" fill="#9E7D43"/><path d="M77.584 44.848a.78.78 0 0 1-.777-.778v-3.315a.778.778 0 1 1 1.555 0v3.315a.776.776 0 0 1-.778.778Z" fill="#9E7D43"/><path fill-rule="evenodd" clip-rule="evenodd" d="M57.104 60.428a.78.78 0 0 1-.482-.167c-.846-.666-1.417-1.675-2.054-2.8-1.646-2.906-3.73-6.587-12.127-7.138-9.205-.6-12.251 2.422-18.93 9.05a.775.775 0 0 1-.613.223c-1.454-.122-2.794-.265-4.096-.403l-.006-.001-.013-.002h-.006c-3.027-.323-5.848-.623-9.401-.603-2.521 0-5.4-.043-7.344-1.676C.526 55.643-.15 53.604.028 50.853v-.034l.003-.036.005-.038a.752.752 0 0 1 .018-.087l.011-.039c.365-1.9 4.308-21.009 11.209-33.212.018-.04.04-.08.066-.116.162-.286.327-.568.493-.846 1.77-2.96 3.608-5.242 5.457-6.743C28.306.738 58.36-.814 75.873.327l7.605.503c20.388 1.33 26.819 5.58 26.456 17.49l-.004.13-.005.142-.009.218-.023.438-.026.445v.005c-.294 4.52-.904 13.915-6.297 26.831-.298.707-.604 1.41-.917 2.11l5.707.105a.784.784 0 0 1 .608.31.786.786 0 0 1 .129.67l-2.19 8.064h8.471a.779.779 0 0 1 0 1.555h-9.475c-6.771.114-8.698.15-9.163.159h-.04c.066-.003.111-.006-.086-.006h-.04l-13.894.325a.781.781 0 0 1-.13.015c-9.355.215-14.707.34-17.76.412l-2.631.063c-3.629.088-4.839.117-5.055.117ZM13.34 16.958c1.632-2.676 3.291-4.711 4.943-6.05C28.877 2.285 59.176.8 75.784 1.876l3.226.21c1.895.122 3.992.26 4.368.29 21.073 1.376 25.103 6 25.026 15.144-11.27-.05-15.9-.102-21.113-.162-9.27-.105-20.387-.232-73.951-.4Zm-.902 1.554c15.688.104 33.533.221 49.697.322L60.724 45.83c-39.127-.258-54.155-.347-57.897-.369a181.04 181.04 0 0 1 1.317-5.055l13.575.09c4.527.03 5.1.032 5.1.032l-.053-.001a.368.368 0 0 1 .062-.001.778.778 0 0 0 0-1.556L4.58 38.85a154.304 154.304 0 0 1 1.761-5.742c15.44.095 10.636.072 11.59.072a.779.779 0 0 0 0-1.553c-3.28-.02-5.69-.036-7.455-.048l-3.613-.024a109.686 109.686 0 0 1 2.14-5.746c21.744.199 21.852.154 21.884.14.004-.001.007-.002.06-.002a.761.761 0 0 0 .36-.087.79.79 0 0 0 .17-.12l.02-.018a.778.778 0 0 0 .231-.548.84.84 0 0 0-.772-.852H9.625c.874-2.04 1.813-4.004 2.813-5.81ZM2.454 47.015c39.876.26 54.767.35 58.189.37l-.597 11.42-2.66.062c-.514-.495-.943-1.252-1.444-2.135-1.683-2.968-4.172-7.355-13.401-7.959-9.711-.63-13.142 2.573-19.867 9.233-1.185-.105-2.377-.23-3.572-.357-1.835-.193-3.677-.387-5.52-.51a53.42 53.42 0 0 0-4.202-.119c-.77.004-1.44.007-2.283-.05-3.959-.258-5.786-1.803-5.517-6.003a122.5 122.5 0 0 1 .874-3.952Zm61.245-28.171 4.321.026c5.316.037 10.72.072 15.899.1l-.07 1.156-.128 2.142-.122 2.123c-.253 4.4-.456 7.925-.95 13.66a99.044 99.044 0 0 0-.49 11.408l.001.392.003.358v.018l.002.32-.001.463c-.01.879-.075 1.757-.376 7.278l-20.182.474c1.821-34.856 2.072-39.614 2.072-39.614l-.013.257c-.019.382-.045.908.034-.561Zm20.018 30.62A97.35 97.35 0 0 1 83.712 47h17.963a107.91 107.91 0 0 1-5.445 10.83l-.07.122-12.81.302.19-3.49v-.005l.002-.043.002-.02.075-1.384.033-.637.024-.471c.025-.519.035-.843.04-1.167.005-.4.001-.802.001-1.572Zm.024-4.02h18.593A92.055 92.055 0 0 0 104.028 41a4192.8 4192.8 0 0 0-5.78-.021.778.778 0 0 1 0-1.556h.106l-.028.001h-.013c-.042 0-.095 0-.047.002h.062l.31.003 1.809.008 4.107.014a80.512 80.512 0 0 0 1.663-5.754l-15.966-.072a.778.778 0 0 1 .085-1.553l2.526.01 13.725.06a72.897 72.897 0 0 0 1.064-5.75c-1.239-.006-4.101-.02-10.49-.046a.778.778 0 0 1 0-1.555c.469 0-.296-.004.13-.002.503.003 2.68.014 10.566.047a92.06 92.06 0 0 0 .463-5.173l.005-.071.03-.512c-4.086-.005-12.336-.045-22.873-.105-.123 1.955-.224 3.711-.322 5.409v.003c-.245 4.237-.468 8.113-.959 13.807a98.084 98.084 0 0 0-.46 7.252Zm16.777 7.695c-.8 1.591-1.637 3.162-2.512 4.713l-.038.068 7.324-.121 2.043-7.519-5.385-.1c-.453.977-.931 1.964-1.432 2.96Z" fill="#9E7D43"/><path fill-rule="evenodd" clip-rule="evenodd" d="M40.873 65.207c-2.298 0-4.228-1.615-4.053-4.306.162-2.462 1.919-3.71 4.416-3.549a3.987 3.987 0 0 1 2.734 1.345c2.236 2.565.568 6.51-3.097 6.51Zm-.07-6.305c-1.45 0-2.336.627-2.422 2.11-.065.98.27 1.74.96 2.203a2.96 2.96 0 0 0 2.826.148c1.426-.705 1.644-2.48.646-3.614A2.438 2.438 0 0 0 41 58.906a6.042 6.042 0 0 0-.197-.004Z" fill="#9E7D43"/><path fill-rule="evenodd" clip-rule="evenodd" d="M31.465 64.503a10.35 10.35 0 0 1-.495-4.161c.385-5.858 4.32-8.975 10.79-8.555 5.382.35 9.39 5.159 9.06 10.174a10.134 10.134 0 0 1-.212 1.518l5.996-.11.347-.007c15.972-.3 18.84-.353 19.947.763a1.592 1.592 0 0 1 .448 1.102v.038c0 .026-.002.053-.004.079-.048 1.822-1.776 1.97-3.04 2.077-1.053.09-2.14.18-2.872.861 1.32.584 3.2.518 5.013.454 2.915-.104 5.658-.2 5.622 2.42-.032 2.33-4.182 2.715-10.952 3.076-6.348.336-6.727.441-7.602 2.293-1.006 2.152-2.338 3.648-10.352 3.433-8.557-.216-9.615-.103-10.396-.02-.472.05-.843.09-2.711.039-2.882-.075-3.767-.947-4.636-2.077-.592-.778-1.06-1.392-3.383-1.454a20.59 20.59 0 0 0-1.453.04c-1.906.091-4.412.211-5.667-1.019a2.554 2.554 0 0 1-.748-1.967c.02-.764.338-1.302.632-1.798.06-.101.12-.201.175-.3-.783-.698-1.886-.557-3.126-.398-1.745.222-3.762.48-5.544-1.508-1.13-1.275-.995-3.283.105-4.244 1.21-1.055 3.293-.858 5.582-.64.852.08 1.732.163 2.607.186.84.022 2.79-.081 4.776-.187h.011c.706-.038 1.416-.076 2.082-.108Zm1.783.317c-.556-1.206-.835-2.66-.725-4.365.35-5.25 3.91-7.457 9.135-7.105 4.532.297 7.88 4.379 7.61 8.523a8.25 8.25 0 0 1-.4 2.093.782.782 0 0 0-.028.07c-1.833 5.336-8.88 6.539-13.05 3.763a7.25 7.25 0 0 1-2.37-2.631 6.546 6.546 0 0 1-.145-.302.809.809 0 0 0-.027-.046Z" fill="#9E7D43"/></svg>