<svg width="29" height="39" viewBox="0 0 29 39" fill="none" xmlns="http://www.w3.org/2000/svg">
<path d="M18.2073 23.027C18.1305 22.4099 18.2358 22.1548 22.7615 21.546C27.2871 20.9372 28.4838 17.9933 27.8681 16.6276C27.0259 14.7527 24.1839 16.396 23.9879 14.981C23.7919 13.5659 29.4506 11.8477 27.6077 8.7112C26.8806 7.47205 24.8971 8.5661 24.1646 7.37248C23.432 6.17885 26.0662 2.83245 23.3259 1.25034C20.6878 -0.272774 19.0129 3.6205 17.602 3.5836C16.1912 3.54669 16.1578 1.28127 14.7211 1.27108C11.0788 1.25121 12.4288 7.00199 11.1012 7.54085C9.77364 8.0797 9.77993 4.7957 7.73513 5.00379C6.24977 5.15646 4.29074 7.66022 6.02897 11.8855C7.76719 16.1107 7.60158 16.331 7.02345 16.57C6.06364 16.9741 4.70828 13.1747 3.1549 14.4858C0.21924 16.9569 5.81582 22.6911 4.70039 23.5885C3.58496 24.4859 2.66944 21.7216 1.17313 23.1698C-0.529598 24.8183 2.08641 28.6303 2.49061 29.4851C2.89481 30.3399 4.82507 32.5687 3.4836 34.9951C2.14213 37.4214 0.971304 38.082 1.8199 38.4817C2.59557 39.0198 2.58225 37.6755 4.00756 35.2976C5.43286 32.9196 8.35369 33.4812 9.29494 33.3997C10.2362 33.3182 14.8432 33.6938 15.4229 31.383C15.9244 29.3709 13.0772 29.9524 13.2966 28.5377C13.5161 27.123 21.2639 29.1313 21.9596 25.3427C22.3053 23.3343 18.3373 24.0603 18.2073 23.027Z" fill="#9E7D43"/>
</svg>
