<svg width="74" height="80" fill="none" xmlns="http://www.w3.org/2000/svg"><path d="M51.964 24.643s-1.223 3.862.572 4.014c1.125.095 1.725-.274 2.317-.639.353-.217.704-.433 1.16-.547.732-.183 1.04-.832 1.374-1.536.224-.472.46-.97.843-1.368.23-.238.546-.48.89-.744 1.095-.836 2.468-1.888 2.207-3.69-.343-2.37-3.147-4.752-4.816-2.025-.401.66-.438 1.204-.471 1.684-.045.662-.082 1.2-1.058 1.756-.22.125-.424.237-.615.341-1.272.695-1.938 1.06-2.403 2.754Zm-1.488 19.935a.5.5 0 0 0 .552.038l2.19-1.233a.5.5 0 0 0-.49-.873l-2.19 1.233a.5.5 0 0 0-.062.835Zm4.25-2.477a.5.5 0 0 1-.37-.838l1.696-1.86a.5.5 0 1 1 .74.676l-1.696 1.86a.498.498 0 0 1-.37.162Zm3.034-3.793a.495.495 0 0 0 .51.015.5.5 0 0 0 .18-.171l1.347-2.121a.501.501 0 0 0-.846-.537l-1.346 2.123a.5.5 0 0 0 .155.69Zm2.967-4.121a.5.5 0 0 1-.422-.768l1.346-2.123a.5.5 0 0 1 .845.536l-1.346 2.123a.5.5 0 0 1-.423.232Zm2.409-4.338a.5.5 0 0 0 .662-.118l1.56-1.97a.5.5 0 1 0-.785-.623l-1.562 1.975a.499.499 0 0 0 .125.736Zm3.328-3.774a.5.5 0 0 1-.358-.85l1.757-1.796a.5.5 0 1 1 .715.7l-1.757 1.796a.502.502 0 0 1-.357.15Zm-6.83 18.222c1.002-1.032 2.004-2.065 3.08-3.015a.092.092 0 0 1 .131.127c-1.069 1.296-2.263 2.485-3.455 3.673l-.147.146c-.183.181-.365.363-.546.545-1.418 1.422-2.85 2.828-4.369 4.14a.05.05 0 0 1-.086-.036.05.05 0 0 1 .015-.036c1.235-1.359 2.532-2.663 3.826-3.964l.358-.36c.398-.4.792-.807 1.187-1.214l.002-.002.004-.004Zm5.728-2.672c-1.772 1.446-3.395 3.074-5.006 4.693-1.61 1.62-3.21 3.259-4.669 5.03a.056.056 0 0 0 .005.073.056.056 0 0 0 .072.007c1.347-1.231 2.638-2.52 3.928-3.808l.018-.018a812.882 812.882 0 0 1 .966-.963c.483-.48.97-.954 1.459-1.43 1.152-1.121 2.304-2.242 3.39-3.424a.114.114 0 0 0-.163-.16Zm-26.68-10.888a.499.499 0 0 1-.349-.143l-1.796-1.754a.5.5 0 0 1 .7-.715l1.799 1.755a.5.5 0 0 1-.35.858l-.004-.001Zm1.033 4.64a.503.503 0 0 0 .8-.333.498.498 0 0 0-.013-.195l-.657-2.431a.5.5 0 1 0-.966.261l.656 2.432c.03.106.092.2.18.266Zm1.382 4.401a.502.502 0 0 1-.472-.334l-.833-2.372a.5.5 0 1 1 .946-.332l.833 2.372a.502.502 0 0 1-.474.666Zm2.315 3.98a.497.497 0 0 0 .476-.038.5.5 0 0 0 .099-.756l-1.688-1.86a.501.501 0 0 0-.743.673l1.688 1.86a.497.497 0 0 0 .168.121ZM35.9 44.917a186.15 186.15 0 0 1-.101.013.051.051 0 0 1 .051-.05.051.051 0 0 1 .05.037Zm-17.594-5.276a.5.5 0 0 1-.233-.945L20.3 37.53a.5.5 0 1 1 .464.889l-2.227 1.162a.495.495 0 0 1-.23.059Zm4.049-3.553a.499.499 0 0 0 .474.04.496.496 0 0 0 .166-.116l1.717-1.832a.5.5 0 1 0-.73-.685l-1.716 1.832a.5.5 0 0 0 .09.761Zm3.751-3.633a.499.499 0 0 1-.301-.9l2.002-1.51a.5.5 0 1 1 .602.799l-2.01 1.51a.492.492 0 0 1-.293.1Zm4.037-3.159a.5.5 0 0 0 .486.092l2.373-.824a.499.499 0 0 0 .225-.814.501.501 0 0 0-.552-.131l-2.375.823a.501.501 0 0 0-.157.854ZM18.919 47.979a106.15 106.15 0 0 0-.093-3.094c-.013-.265-.017-.54-.021-.819-.012-.772-.024-1.572-.225-2.28-.009-.032-.062-.037-.068 0-.118.652-.073 1.357-.03 2.047.02.309.04.615.045.912.012.539.028 1.078.044 1.617.016.539.031 1.078.044 1.617a965.8 965.8 0 0 1 .09 4.308v.001a3145.971 3145.971 0 0 0 .043 2.16.063.063 0 1 0 .126 0c.076-2.155.086-4.313.045-6.47ZM6.703 14.277a1.367 1.367 0 0 0-1.191.946c-.111.345-.08.72.085 1.044l.701 1.364-1.495 1.078a1.369 1.369 0 1 0 1.602 2.22l1.159-.835.69 1.345a1.37 1.37 0 0 0 2.437-1.252l-.88-1.712 1.315-.948a1.368 1.368 0 1 0-1.602-2.22l-.98.705-.51-.995a1.368 1.368 0 0 0-1.33-.74Zm3.522 12.56a.5.5 0 0 0 .773-.555l-.758-2.395a.5.5 0 1 0-.954.301l.758 2.396a.5.5 0 0 0 .181.253Zm1.981 5.174a.5.5 0 0 1-.477-.35l-.758-2.396a.5.5 0 0 1 .954-.302l.758 2.396a.5.5 0 0 1-.477.652Zm2.331 5.219a.5.5 0 0 0 .698-.666l-1.184-2.217a.5.5 0 0 0-.883.472l1.185 2.217a.5.5 0 0 0 .184.194ZM2.512 11.204c.039 1.456.074 2.911.106 4.367.063 2.959.093 5.915.04 8.87a.063.063 0 0 1-.063.053.063.063 0 0 1-.062-.054 538.831 538.831 0 0 1-.225-8.15l-.016-.718a669.57 669.57 0 0 0-.115-4.367c-.021-.751-.036-1.502-.049-2.253a12.303 12.303 0 0 0-.022-.511c-.029-.497-.058-1.01.08-1.468V6.97a.027.027 0 0 1 .026-.018.027.027 0 0 1 .027.021c.17.454.173.975.177 1.478.001.17.002.338.01.5.034.752.066 1.503.086 2.253Z" fill="#9E7D43"/><path fill-rule="evenodd" clip-rule="evenodd" d="M17.133 79.865a.506.506 0 0 0 .342.135h.019a.508.508 0 0 0 .349-.16l17.143-18.461 14.9 17.849a.5.5 0 0 0 .148.177l.133.16a.5.5 0 0 0 .566.147.52.52 0 0 0 .174-.11L73.07 57.248a.504.504 0 0 0 .143-.386L69.538 1.695a.5.5 0 0 0-.78-.382L46.577 16.19 34.102 3.878a.5.5 0 0 0-.635-.056l-16.398 11.3L.841.132A.502.502 0 0 0 0 .507l.904 64.002a.506.506 0 0 0 .159.359l16.07 14.998Zm55.065-23.172-21.4 21.595-1.204-19.658c.542-.162 3.743-.845 6.823 4.458 1.276 2.193 3.045 3.21 4.98 2.861 3.026-.546 5.972-4.36 6.709-8.682.143-.844.272-1.641.396-2.418l.001-.005c.71-4.422 1.238-7.709 2.982-8.858l.713 10.707Zm-.787-11.81-1.758-26.38c-.797.187-1.613.288-2.434.3-1.197 0-2.233-.26-3.095-.777-2.177-1.303-2.788-3.928-3.191-5.664l-.007-.03c-.086-.366-.16-.682-.238-.943a1.062 1.062 0 0 0-.572-.682c-1.069-.538-3.18.024-3.904.286a.501.501 0 0 1-.148.033l-9.016 6.046 2.484 40.543c1.13-.25 4.589-.474 7.75 4.967 1.064 1.834 2.432 2.658 3.937 2.384 2.594-.467 5.24-3.996 5.9-7.867.125-.73.238-1.433.348-2.116l.047-.293v-.004c.805-5.01 1.39-8.653 3.897-9.803ZM48.544 57.957l-.796-13.024-2.074-.1a.5.5 0 1 1 .048-1l1.964.093-1.643-26.862-5.561-5.485c-.14 1.904-1.32 4.433-3.22 5.027-1.217.38-2.217 2.204-2.618 3.128l.63 40.463a.506.506 0 0 1 .117.103l6.097 7.307c.111-1.121.376-2.224.79-3.277.805-2.09 2.543-4.84 6.267-6.373ZM34.425 5.604 39.49 10.6l-.003.01-.002.009-.002.005-.001.007a.501.501 0 0 0-.009.199c.219 1.693-.958 4.335-2.509 4.82-.987.309-1.783 1.194-2.35 2.051l-.188-12.097Zm-1.009-.53.225 14.48-.01.026c-1.085 1.785-2.447 2.556-4.045 2.288-2.947-.495-5.912-4.281-6.205-5.673-.312-1.483-1.518-2.164-2.578-2.422l12.613-8.699ZM17.37 16.14l2.191-1.512a.516.516 0 0 0 .131.015h.003c.13 0 2.334-.003 2.705 1.761.332 1.576 3.49 5.86 7.02 6.453.255.043.514.065.773.066 1.06 0 2.316-.38 3.473-1.7l.613 39.447-8.055 8.674c.032-3.19-.692-5.46-2.202-6.918-1.55-1.498-3.782-1.998-6.287-2.059L17.37 16.14Zm-.488 62.12-.14-16.879c-1.544.03-3.276.19-5.18.391-3.503.37-6.483-1.227-8.612-4.624a17.617 17.617 0 0 1-1.176-2.261l.133 9.394L16.882 78.26Zm-.514-62.15.366 44.254c-1.704.03-3.503.22-5.28.408-3.133.332-5.707-1.06-7.646-4.138a16.92 16.92 0 0 1-2.03-4.893.5.5 0 0 0-.05-.17l-.066-4.617c.302-.116.512-.221.708-.32h.001c.653-.328 1.162-.583 4.488-.957 4.663-.523 3.905-2.324 2.972-3.146-.244-.216-.54-.382-.874-.57-.942-.53-2.19-1.233-3.438-3.686-1.263-2.482-3.144-2.622-4.015-2.533L1.023 1.659 16.416 15.89a.499.499 0 0 0-.048.22Zm6.962 47.04c-1.303-1.258-3.187-1.716-5.586-1.769l.14 16.945 7.294-7.856c.224-3.508-.382-5.903-1.848-7.32Zm25.28-4.134c-2.566 1.14-4.372 3.032-5.385 5.637a11.599 11.599 0 0 0-.796 4.082l7.31 8.762-1.13-18.481ZM60.564 9.813c-.643-.323-1.466-.369-2.243-.3l10.273-6.89.99 14.862c-2.079.51-3.74.402-4.942-.319-1.812-1.085-2.343-3.367-2.73-5.033l-.01-.038c-.085-.365-.165-.709-.251-.995a2.058 2.058 0 0 0-1.087-1.287Z" fill="#9E7D43"/></svg>