<svg width="83" height="80" fill="none" xmlns="http://www.w3.org/2000/svg"><path d="M3.094 62.425h.025a.556.556 0 0 0 .399-.42c.055-.21.048-.462.042-.701a5.774 5.774 0 0 1-.003-.306 11.135 11.135 0 0 0 0-.609l-.005-.244a56.238 56.238 0 0 1-.005-.273c-.123-7.921-.232-15.837.018-23.765.09-2.889.083-5.782.075-8.677a658.521 658.521 0 0 1-.003-3.394 11.207 11.207 0 0 0-.108-1.627.561.561 0 0 0-.405-.367c-.143-.005-.385.197-.42.348a5.206 5.206 0 0 0-.099 1.119c-.022 1.566-.048 3.131-.074 4.697v.002a908.561 908.561 0 0 0-.147 12.025c-.017 5.034.01 10.066.037 15.099.01 1.925.021 3.85.03 5.776 0 .395.017 1.386.643 1.317ZM5.77 23.333l.032.008.02.006a.422.422 0 0 1 .116.061c.05.037.093.083.124.138.112.176.118.406.123.613l.002.073c.053.922.044 1.846.044 2.769 0 2.94.004 5.881.012 8.824.007 2.943.007 5.885 0 8.826 0 1.133-.024 2.256-.096 3.391-.013.212-.04.448-.206.577-.53.41-.795-.27-.809-.684a62.71 62.71 0 0 1-.015-2.56l.002-.302c.002-.178.003-.356.003-.535l.038-11.885a10387.969 10387.969 0 0 1 .03-7.593c0-.042-.002-.09-.004-.143-.019-.57-.057-1.689.583-1.584Zm-.778 50.513c.06.251.227.826.55.772a.434.434 0 0 0 .214-.11c.197-.18.225-.593.25-.845.02-.325.023-.65.01-.975a6983.08 6983.08 0 0 0-.119-12.557 13.76 13.76 0 0 0-.052-.901l-.017-.208a18.573 18.573 0 0 1-.017-.243l-.006-.113c-.015-.281-.187-.639-.516-.639a.328.328 0 0 0-.358.28c-.095.353-.09.701-.084 1.055l.001.078.002.174c0 .747-.007 1.492-.014 2.238l-.008 1.089c-.003.383-.005.768-.005 1.153.017 2.945.044 5.889.083 8.832-.005.309.024.617.086.92Zm-1.714 1.215a.419.419 0 0 1-.182-.064c-.31-.179-.325-.786-.333-1.149l-.002-.072a72.865 72.865 0 0 1-.024-2.14l-.001-.761-.004-.482c-.006-.532-.016-1.064-.026-1.595-.017-.93-.034-1.861-.033-2.792 0-.061-.002-.127-.004-.195-.014-.447-.03-.982.518-.994.556-.011.53.49.51.925-.005.08-.009.16-.009.233.03 2.55.045 5.098.048 7.647.003.295.017 1.476-.458 1.44Zm26.166-58.468a.239.239 0 0 1-.106.126c-.277.187-.638.18-.969.174h-.003l-.167-.002h-1.635c-.409 0-.82 0-1.226-.012a.388.388 0 0 1-.26-.102c-.242-.246.018-.522.28-.543.657-.047 1.326-.033 1.99-.02l.355.008c.197.004.393.006.589.006.288-.019.578-.003.863.048a.63.63 0 0 1 .19.072.21.21 0 0 1 .112.195l-.002.009-.001.009a.251.251 0 0 1-.01.032Zm-16.707.039v.02c-.068.392.62.365.967.351.06-.002.11-.004.144-.003.701.026 1.4.017 2.1.009.35-.005.7-.01 1.052-.01h4.962c.027 0 .066.002.114.005.29.013.898.041.888-.23-.018-.477-.695-.483-1.1-.486h-.101l-.072-.003c-.65-.035-1.3-.047-1.95-.034-1.284.024-2.572.041-3.86.059h-.01c-.85.011-1.7.023-2.548.036a1.07 1.07 0 0 0-.347.046.356.356 0 0 0-.149.09.365.365 0 0 0-.09.15Zm59.21 14.382c.014-.371.038-1.03-.35-1.03a.445.445 0 0 0-.113.014c-.402.1-.388.624-.378 1l.002.092v.105c-.148 6.327-.114 12.642.751 18.934.103.752.202 1.503.302 2.253.125.95.25 1.9.383 2.85.045.319.234 1.105.735.728.225-.169.16-.679.12-.995l-.009-.067-.008-.07a36.858 36.858 0 0 0-.2-1.636l-.001-.002c-.045-.326-.09-.652-.13-.979l-.056-.46c-.568-4.67-1.135-9.335-1.07-14.053a378.558 378.558 0 0 0 .02-6.6l.002-.084ZM40.559 43.705h-3.202c-1.482 0-2.965-.004-4.45-.009l-2.712-.01h-.008c-2.135-.01-4.27-.018-6.402-.02a4.935 4.935 0 0 1-1.238-.105.714.714 0 0 1-.43-.523.702.702 0 0 1 .406-.537 5.823 5.823 0 0 1 1.36-.126l3.765-.007c4.227-.01 8.457-.02 12.683.024 1.293.014 2.586.01 3.88.005.648-.002 1.296-.005 1.945-.005h8.842c.453 0 .909.007 1.365.014.913.014 1.829.028 2.734-.014.219-.025.44.005.646.086a.58.58 0 0 1 .354.467.585.585 0 0 1-.23.54c-.31.254-.743.24-1.137.229a7.615 7.615 0 0 0-.239-.005H43.774l-3.215-.004Zm-.55 11.541c-2.342-.033-4.684-.057-7.026-.082-2.164-.022-4.327-.044-6.491-.074l-.097-.001h-.001c-.454-.006-1.03-.014-1.418-.225-.271-.151-.403-.378-.195-.65.215-.289.66-.28 1.005-.272h.029l.055.001h.037l1.04.008.974.006 2.862.015c4.092.02 8.184.042 12.271.119 5.058.096 10.098-.045 15.127-.6.623-.074 1.25-.103 1.877-.086.528.017.617.865.168 1.069a4.53 4.53 0 0 1-1.327.317c-4.425.503-8.832.564-13.283.52a1118.5 1118.5 0 0 1-5.607-.065Zm33.611 3.442a.295.295 0 0 1 .31.144c.232.364.275.818.316 1.246v.002l.025.247a40.654 40.654 0 0 0 .11.882 84.005 84.005 0 0 0 .195 1.399l.002.01.055.382c.007.053.02.116.034.187.078.396.199 1.01-.285 1.064-.347.04-.391-.287-.428-.56v-.002l-.002-.011-.006-.041-.005-.038-.107-.69v-.002a59.545 59.545 0 0 1-.386-2.744c-.059-.448-.185-1.398.171-1.475Z" fill="#9E7D43"/><path fill-rule="evenodd" clip-rule="evenodd" d="M82.261 75.685c.042.11.082.22.114.334.288 1.006.001 1.45-1.045 1.456-1.296.023-2.596.02-3.897.015l-1.485-.003c-.222 0-.477.003-.733.006-.262.004-.527.007-.762.007v.462c-.058 1.034-.087 1.543-.356 1.794-.261.244-.75.244-1.712.244l-69.764-.058H2.44c-.4.001-.8.002-1.196-.029-.578-.046-.838-.303-.845-.974C.321 72.058.222 65.177.123 58.295L.038 52.38a341.624 341.624 0 0 1-.035-6.67c.014-3.039.032-6.078.05-9.117.025-4.054.049-8.108.062-12.162.004-1.412-.016-2.824-.036-4.235a255.91 255.91 0 0 1-.037-3.818 47.547 47.547 0 0 1 .137-3.775 5.657 5.657 0 0 1 1.712-3.68 5.599 5.599 0 0 1 3.726-1.57c3.041-.125 6.089-.243 9.136-.251l-.069-4.53a3.5 3.5 0 0 1 .106-.997c.161-.572.517-.916 1.175-.916.53 0 1.059-.03 1.588-.062.26-.015.52-.03.781-.042 1.091-.05 1.425.226 1.488 1.359.069 1.207.113 2.414.157 3.62l.057 1.539h.16v.032c13.747-.008 27.494-.012 41.241-.012.027-1.8.058-3.601.107-5.402.037-1.425.313-1.651 1.73-1.676a76.541 76.541 0 0 1 2.995 0c1.158.026 1.405.262 1.424 1.41.024 1.631.024 3.258.024 4.894v.838c.504.011 1.01.02 1.515.028.336.006.67.039 1.002.077 2.684.303 4.509 2.111 4.722 4.833.168 2.131.246 4.27.285 6.41.038 2.06.056 4.12.074 6.18.032 3.648.065 7.296.204 10.94.11 2.907.366 5.807.622 8.707.124 1.405.248 2.811.355 4.218.476 6.21 1.824 12.273 3.183 18.326.437 1.944 1.03 3.852 1.625 5.76.264.85.529 1.7.78 2.552.05.168.115.332.177.497ZM66.308 1.457h-3.562l-.005.213c-.074 3.086-.147 6.088-.025 9.155h3.592V1.457ZM18.516 1.9l-2.475.175a87.753 87.753 0 0 0 .184 9.48h2.666l-.188-4.828c-.062-1.6-.125-3.2-.187-4.827ZM7.184 58.43c-.05-10.079-.1-20.157.18-30.236.042-1.488.03-2.978.019-4.465l-.009-1.313c-.003-.655-.004-1.31-.005-1.964-.004-2.2-.008-4.397-.075-6.593-.038-.99-.27-1.992-.538-2.954-.287-1.031-1.527-2.038-2.352-1.96-3.046.283-3.06 4.456-3.068 6.87 0 .15 0 .292-.002.427L1.321 17.7a550.016 550.016 0 0 0-.032 5.142l-.007 2.333c-.031 9.749-.062 19.5-.012 29.251.026 5.143.127 10.283.229 15.424.04 2.073.082 4.146.118 6.22.009.546.034 1.092.074 1.635.011.154.015.3.02.456.002.124.006.255.013.403.847 0 1.7-.005 2.568-.01.951-.006 1.918-.012 2.908-.012v-1.651c.045-6.154.014-12.307-.016-18.46ZM6.669 8.46c.131.193.252.365.363.524.225.321.413.59.572.866.886 1.554.933 3.276.957 5.002.008.651.033 1.302.06 1.983l.035.96c4.303-.07 8.607-.136 12.911-.201 4.378-.067 8.759-.123 13.142-.168 4.377-.045 8.754-.074 13.131-.086 4.377-.013 8.755 0 13.132.039.68.006 1.36.015 2.043.025 1.221.016 2.444.033 3.668.033h6.265c.167.007.334.005.5.002l.251-.002h.35c.004-.544-.018-1.09-.04-1.637a61.024 61.024 0 0 1-.034-.966 24.227 24.227 0 0 0-.21-2.774c-.205-1.459-1.136-3.27-3.426-3.453a61.202 61.202 0 0 0-2.629-.161V9.59c0 .172.007.346.015.52.015.368.03.737-.027 1.1-.114.721-.342.952-1.05.973-1.33.043-2.664.035-3.994 0-.925-.025-1.262-.377-1.252-1.326a800.298 800.298 0 0 1 .027-2.435c-13.742.008-27.483.02-41.224.033v3.152c0 1.3-.261 1.532-1.555 1.445-.836-.055-1.671-.056-2.504-.114-1.006-.07-1.261-.28-1.289-1.3-.028-1.06-.052-2.119-.072-3.178H6.669Zm66.188 70.038a.172.172 0 0 0 .04-.09c.069-.3.149-.58.205-.883a44.115 44.115 0 0 0-1.582-.026l-58.108-.053H13.3c-.483 0-1.02.002-1.399-.327-.239-.21-.3-.499-.39-.798a22.55 22.55 0 0 1-.54-2.494c-.108-.606-.215-1.214-.32-1.822a1530.16 1530.16 0 0 1-1.077-6.3c-.252-1.469-.4-2.946-.548-4.426-.057-.566-.114-1.133-.176-1.7l-.124-1.111c-.121-1.085-.242-2.17-.357-3.255v11.519c0 3.937-.001 7.876.033 11.815l64.33-.015a.173.173 0 0 0 .125-.033ZM14.445 76.15c21.705-.005 43.409-.011 65.113-.02v-.003c.403 0 .806-.034 1.296-.041-.064-.26-.108-.46-.154-.641a6.5 6.5 0 0 0-.047-.176c-.674-2.335-1.352-4.668-2.033-7-2.818-9.651-3.772-19.583-4.273-29.564-.12-2.396-.198-4.8-.26-7.19-.044-1.754-.078-3.512-.112-5.268l-.027-1.334c-.012-.637-.034-1.276-.055-1.916-.05-1.461-.098-2.925-.042-4.375H51.368c-.908 0-1.813.013-2.718.025-.678.01-1.357.018-2.038.023-4.393.022-8.786.064-13.179.126l-13.179.18c-2.505.034-5.01.108-7.515.181-.916.027-1.832.054-2.748.079a12.25 12.25 0 0 0-.805.059c-.133.013-.267.026-.403.037-.012.147-.026.277-.039.397a5.888 5.888 0 0 0-.045.616c-.014.576-.03 1.154-.047 1.732-.044 1.558-.089 3.118-.089 4.679 0 1.91-.05 3.818-.1 5.727a402.04 402.04 0 0 0-.073 3.044c-.027 1.465-.04 2.935-.012 4.405.012.618.01 1.237.007 1.856a58.6 58.6 0 0 0 .022 2.385c.08 2.234.325 4.436.57 6.647.07.621.139 1.243.204 1.866l.044.41c.099.928.198 1.861.275 2.792a141.181 141.181 0 0 0 2.804 17.882c.059.266.138.527.217.788.079.261.157.522.216.788.134.604.505.826 1.083.804.207-.013.416 0 .625 0Z" fill="#9E7D43"/></svg>