<svg width="83" height="80" viewBox="0 0 83 80" fill="none" xmlns="http://www.w3.org/2000/svg">
<path d="M3.09358 62.4251H3.11864C3.21713 62.3985 3.30647 62.3453 3.37689 62.2711C3.44731 62.1971 3.49609 62.1049 3.51788 62.0047C3.57252 61.7954 3.56586 61.5433 3.55953 61.3039C3.55673 61.1978 3.554 61.0942 3.55669 60.9981C3.55997 60.8767 3.56071 60.7547 3.55999 60.6321C3.55951 60.5514 3.55841 60.4703 3.55698 60.3893L3.55206 60.1454C3.55011 60.0543 3.54817 59.9631 3.54666 59.8718C3.42401 51.9507 3.31512 44.0347 3.56544 36.1071C3.65543 33.2183 3.64771 30.3248 3.63998 27.43C3.63697 26.2989 3.63396 25.1675 3.63678 24.0362C3.64044 23.4918 3.60448 22.9481 3.52913 22.4091C3.51521 22.3677 3.4966 22.3284 3.4738 22.2917C3.44638 22.2476 3.41287 22.2073 3.3741 22.1722C3.30311 22.1078 3.21686 22.063 3.12363 22.0418C2.98094 22.0367 2.73939 22.2392 2.70434 22.3903C2.63116 22.7584 2.598 23.1335 2.60547 23.5089C2.58263 25.0747 2.55662 26.6404 2.53062 28.206L2.53057 28.2083C2.464 32.217 2.39745 36.2251 2.38395 40.2332C2.36675 45.2665 2.39407 50.299 2.4214 55.3319C2.43185 57.257 2.4423 59.1822 2.45027 61.1075C2.45153 61.5026 2.46779 62.4942 3.09358 62.4251Z" fill="#9E7D43"/>
<path d="M5.76946 23.3328C5.7804 23.3351 5.79123 23.3379 5.80193 23.3411L5.82195 23.3475C5.83237 23.3511 5.84263 23.3551 5.85273 23.3595C5.86335 23.3641 5.8738 23.3691 5.88404 23.3745C5.90279 23.3844 5.92085 23.3957 5.93808 23.4082C5.9885 23.4448 6.0308 23.4915 6.06232 23.5456C6.17414 23.722 6.18007 23.9516 6.18543 24.1593L6.18749 24.2324C6.24006 25.1536 6.23131 26.0785 6.23131 27.0009C6.23131 29.941 6.23505 32.8825 6.24256 35.8254C6.25007 38.7682 6.25007 41.7101 6.24256 44.6513C6.24256 45.7838 6.21878 46.9075 6.14744 48.0424C6.13368 48.2538 6.1074 48.4903 5.94093 48.6187C5.41151 49.029 5.14617 48.3495 5.13242 47.9355C5.1041 47.0816 5.11064 46.2278 5.1172 45.3741L5.11943 45.0733C5.12071 44.8949 5.1218 44.7165 5.12239 44.5381L5.15967 32.6532C5.16674 30.7386 5.17435 28.8239 5.18248 26.909C5.18248 26.3218 5.18539 25.7346 5.19123 25.1473C5.1917 25.1226 5.19144 25.0933 5.19073 25.0602C5.18984 25.0181 5.1882 24.9697 5.18638 24.9166C5.16714 24.3477 5.12925 23.2283 5.76946 23.3328Z" fill="#9E7D43"/>
<path d="M4.99222 73.8456C5.05231 74.0973 5.21876 74.6723 5.54168 74.6181C5.58008 74.6105 5.6171 74.5977 5.6518 74.5803C5.68958 74.5612 5.72461 74.5368 5.75569 74.5075C5.95345 74.3276 5.98099 73.9148 6.00601 73.6631C6.02561 73.3384 6.02895 73.0129 6.01602 72.688C5.98015 68.5019 5.94051 64.3164 5.89712 60.1311C5.89327 59.8337 5.86904 59.5315 5.84484 59.2296L5.82844 59.0224C5.8222 58.9412 5.81633 58.8602 5.81118 58.7793L5.80451 58.6664C5.7895 58.3845 5.61803 58.0272 5.28886 58.0272C5.20496 58.0189 5.12105 58.0431 5.05446 58.0952C4.98786 58.147 4.94364 58.2227 4.9309 58.3065C4.83576 58.6597 4.84129 59.0085 4.8469 59.3621L4.84808 59.4395C4.84892 59.4973 4.84955 59.5556 4.84955 59.6139C4.84955 60.3611 4.84299 61.1064 4.83643 61.8521C4.83323 62.2148 4.83002 62.5775 4.82758 62.9406C4.82501 63.3244 4.82327 63.7087 4.82327 64.0936C4.83996 67.0389 4.86749 69.983 4.90586 72.9257C4.90071 73.2346 4.9297 73.5432 4.99222 73.8456Z" fill="#9E7D43"/>
<path d="M3.27756 75.0612C3.21293 75.0541 3.15081 75.0322 3.0961 74.9969C2.78596 74.8181 2.77128 74.2113 2.7625 73.8482L2.76065 73.7764C2.7385 73.0602 2.73785 72.3475 2.7372 71.6353C2.73697 71.3818 2.73674 71.1283 2.73556 70.8745C2.7348 70.714 2.73365 70.5534 2.73188 70.3927C2.72551 69.8611 2.71582 69.3294 2.70614 68.7977C2.68918 67.8672 2.67225 66.9366 2.67305 66.0062C2.67305 65.9447 2.67101 65.8791 2.66891 65.8113C2.65507 65.3642 2.6385 64.8291 3.18746 64.8171C3.74297 64.8055 3.71788 65.3069 3.69612 65.7416C3.69204 65.8229 3.68809 65.902 3.68809 65.9747C3.71729 68.5241 3.73313 71.0731 3.73565 73.6216C3.73941 73.9174 3.75316 75.0976 3.27756 75.0612Z" fill="#9E7D43"/>
<path d="M29.4444 16.5928C29.4377 16.6111 29.4288 16.6286 29.4178 16.6448C29.3972 16.6753 29.3699 16.7006 29.338 16.719C29.061 16.9064 28.6997 16.8998 28.369 16.8935H28.3662C28.3094 16.8925 28.2535 16.8914 28.1991 16.8914H26.5645C26.1553 16.8914 25.7435 16.8914 25.338 16.8787C25.2421 16.878 25.1499 16.8417 25.0789 16.7768C24.8361 16.5314 25.0964 16.2546 25.358 16.2344C26.0149 16.1867 26.6838 16.2009 27.3489 16.2149L27.703 16.2219C27.9 16.2256 28.0964 16.2282 28.2917 16.2282C28.5804 16.2092 28.8704 16.2254 29.1553 16.2761C29.2221 16.2895 29.2864 16.3138 29.3455 16.3478C29.3805 16.3664 29.4095 16.3947 29.4292 16.4292C29.4489 16.4636 29.4585 16.503 29.4569 16.5429L29.4555 16.552L29.4538 16.5606C29.4514 16.5714 29.4483 16.5822 29.4444 16.5928Z" fill="#9E7D43"/>
<path d="M12.737 16.6321V16.6523C12.6689 17.0442 13.3577 17.0168 13.704 17.0033C13.7646 17.0008 13.8147 16.9988 13.8484 16.9996C14.5491 17.0265 15.2481 17.0175 15.948 17.0085C16.2983 17.004 16.6488 16.9996 16.9999 16.9996H21.9625C21.9889 16.9996 22.0282 17.0014 22.0761 17.0036C22.3665 17.017 22.9745 17.0452 22.9637 16.7731C22.9455 16.2967 22.2687 16.2915 21.8644 16.2883H21.8566L21.8095 16.2878L21.7628 16.2871C21.7367 16.2866 21.7126 16.2859 21.6909 16.2848C21.0417 16.2495 20.3917 16.2382 19.7409 16.2509C18.4568 16.275 17.1691 16.2924 15.8808 16.3098H15.8707C15.0214 16.3214 14.1718 16.333 13.3228 16.3464C13.2588 16.3443 13.1948 16.3478 13.1317 16.3571C13.0791 16.3648 13.0271 16.3764 12.9761 16.3918C12.9468 16.4009 12.9188 16.4137 12.8929 16.4299C12.8691 16.4447 12.847 16.4623 12.827 16.4823C12.7854 16.5241 12.7545 16.5755 12.737 16.6321Z" fill="#9E7D43"/>
<path d="M71.9472 31.014C71.9609 30.643 71.9851 29.9842 71.5965 29.9842C71.5585 29.9841 71.5207 29.9886 71.4839 29.9981C71.0823 30.0972 71.0962 30.6218 71.1061 30.9974L71.1083 31.0896C71.109 31.1273 71.1092 31.1625 71.1084 31.1947C70.9595 37.5215 70.9945 43.837 71.8593 50.1287C71.9621 50.8811 72.0614 51.6319 72.1606 52.3821C72.2863 53.3323 72.4118 54.2813 72.544 55.2312C72.589 55.5507 72.778 56.3373 73.2786 55.9597C73.5035 55.7911 73.4389 55.2812 73.3988 54.9646L73.3904 54.8977C73.3874 54.8722 73.3846 54.8486 73.3825 54.8272C73.3317 54.2807 73.2564 53.7362 73.1811 53.1917L73.1809 53.1903C73.1358 52.8641 73.0907 52.5378 73.0508 52.2112L72.995 51.7516C72.4272 47.0809 71.8602 42.4164 71.9244 37.6978C71.9545 35.5196 71.9507 33.3414 71.9432 31.1633C71.9432 31.1437 71.9436 31.1219 71.9443 31.098L71.9472 31.014Z" fill="#9E7D43"/>
<path d="M40.5585 43.705H37.3569C35.8752 43.705 34.3919 43.7012 32.9078 43.696C32.0038 43.6928 31.0995 43.6891 30.1951 43.6855H30.1868C28.0525 43.6766 25.9177 43.6678 23.7848 43.666C23.3694 43.6834 22.9536 43.6483 22.5469 43.5614C22.438 43.5165 22.3417 43.4454 22.2668 43.354C22.2516 43.3356 22.2374 43.3163 22.2242 43.2965C22.2148 43.2825 22.2059 43.268 22.1976 43.2532C22.1876 43.2354 22.1783 43.2173 22.1698 43.1988C22.1462 43.1477 22.1287 43.0937 22.1176 43.038C22.1348 42.9214 22.181 42.811 22.2519 42.7172C22.3228 42.6232 22.4161 42.5487 22.5231 42.5008C22.9698 42.4057 23.426 42.3634 23.8824 42.3749C25.1373 42.3735 26.3923 42.3706 27.6475 42.3677C31.8755 42.3583 36.1046 42.3488 40.3307 42.3924C41.6245 42.4059 42.9171 42.4014 44.2113 42.397C44.8589 42.3947 45.5069 42.3924 46.1556 42.3924H54.998C55.4514 42.3924 55.9069 42.3993 56.3629 42.4062C57.2764 42.4199 58.1919 42.4335 59.0969 42.3924C59.3159 42.3673 59.5377 42.3967 59.7427 42.4781C59.8377 42.5173 59.9205 42.5812 59.9829 42.6632C60.0212 42.7135 60.0509 42.7697 60.0711 42.8292C60.0837 42.8664 60.0926 42.9052 60.0975 42.9447C60.1102 43.0471 60.0957 43.1511 60.0553 43.246C60.015 43.3407 59.9503 43.4233 59.8679 43.4848C59.557 43.7389 59.1241 43.7258 58.7301 43.7137C58.6483 43.7111 58.5682 43.7087 58.4912 43.7087H43.7738L40.5585 43.705Z" fill="#9E7D43"/>
<path d="M40.009 55.2463C37.6669 55.2129 35.3248 55.1886 32.9826 55.1643C30.8191 55.142 28.6555 55.1198 26.4919 55.0902L26.3949 55.0888H26.3937C25.9402 55.0825 25.3632 55.0746 24.9762 54.8637C24.7046 54.7126 24.5732 54.4861 24.781 54.2143C24.9961 53.9253 25.4406 53.9346 25.7855 53.9416H25.815L25.8698 53.9432L25.9074 53.9438C26.2541 53.9464 26.6007 53.9487 26.9474 53.9508L27.9213 53.9567C28.8752 53.9622 29.8292 53.9671 30.7831 53.972C34.8751 53.9928 38.9666 54.0137 43.0541 54.091C48.1118 54.1867 53.1519 54.0457 58.1807 53.4908C58.8037 53.4168 59.4311 53.3883 60.0581 53.4052C60.5863 53.4217 60.6751 54.2697 60.2258 54.4736C59.8021 54.6461 59.3548 54.7529 58.8992 54.7907C54.4736 55.294 50.0667 55.3545 45.6161 55.3104C43.7437 55.2928 41.8488 55.2727 40.009 55.2463Z" fill="#9E7D43"/>
<path d="M73.6191 58.6877C73.6795 58.6764 73.742 58.6842 73.7978 58.7102C73.8537 58.7361 73.9001 58.7788 73.9307 58.8324C74.1619 59.1962 74.2051 59.6498 74.2459 60.0783L74.2461 60.0797C74.2541 60.1634 74.262 60.2463 74.2712 60.3273C74.2889 60.4832 74.3076 60.6385 74.327 60.7934C74.3443 60.932 74.3622 61.0704 74.3805 61.2085C74.4095 61.4273 74.4396 61.6459 74.4703 61.8643C74.5052 62.1119 74.5408 62.3595 74.5765 62.6076L74.578 62.6181L74.6329 63C74.6404 63.0525 74.653 63.1161 74.6669 63.1866C74.745 63.5832 74.866 64.1973 74.3825 64.2509C74.0349 64.2903 73.9907 63.964 73.9538 63.6911L73.9535 63.6888L73.952 63.6778L73.9463 63.6366L73.9407 63.5989C73.9056 63.3697 73.8697 63.1395 73.8336 62.9086L73.8333 62.9067C73.6996 62.0511 73.5647 61.1878 73.4701 60.34C73.4665 60.2996 73.4584 60.2384 73.4484 60.163C73.3891 59.7148 73.2634 58.7653 73.6191 58.6877Z" fill="#9E7D43"/>
<path fill-rule="evenodd" clip-rule="evenodd" d="M82.2615 75.6852C82.3028 75.7952 82.3426 75.9058 82.3752 76.0186C82.663 77.0254 82.3764 77.4682 81.3301 77.4745C80.0337 77.4983 78.734 77.4942 77.4334 77.4902C76.9384 77.4887 76.4434 77.4872 75.9483 77.4872C75.7258 77.4872 75.4713 77.4902 75.2145 77.4933C74.9527 77.4965 74.6883 77.4997 74.4527 77.4997V77.9615C74.3949 78.9958 74.3664 79.5054 74.0971 79.7564C73.8357 80 73.3474 80 72.385 80L2.62052 79.9422L2.43999 79.9425C2.04061 79.9431 1.64077 79.9438 1.24377 79.9132C0.665542 79.8666 0.406471 79.6099 0.398958 78.9392C0.321137 72.0575 0.222131 65.1766 0.123125 58.2952C0.09475 56.3235 0.0663754 54.3517 0.0384965 52.3798C0.00512572 50.1585 -0.00654451 47.9355 0.00346671 45.7107C0.0168722 42.6714 0.0351022 39.6321 0.0533322 36.5927C0.0776642 32.5389 0.101977 28.4852 0.114849 24.4313C0.119463 23.0189 0.099155 21.6071 0.0788656 20.196C0.0605593 18.9229 0.0422531 17.6503 0.0422531 16.378C0.0409945 15.1196 0.0797999 13.8614 0.178673 12.6031C0.275334 11.2056 0.88558 9.89404 1.89069 8.92376C2.89582 7.95348 4.22395 7.39372 5.61681 7.35328C8.65816 7.22753 11.7058 7.11048 14.7534 7.10163L14.6845 2.57177C14.6716 2.23619 14.707 1.90045 14.7897 1.57509C14.9511 1.00266 15.3066 0.659143 15.9649 0.659143C16.4944 0.659906 17.0239 0.628469 17.5534 0.597032C17.8137 0.581618 18.0739 0.566205 18.3342 0.554607C19.4255 0.50562 19.7585 0.781077 19.8223 1.91358C19.8908 3.12131 19.9346 4.32783 19.9785 5.53404C19.9971 6.04696 20.0158 6.55987 20.0363 7.07278H20.1953V7.10544C33.9426 7.09705 47.69 7.09293 61.4374 7.09293C61.4637 5.29231 61.495 3.49154 61.5438 1.69092C61.5814 0.266484 61.8567 0.040014 63.2735 0.0148338C64.266 -0.000274387 65.2673 -0.00912563 66.2685 0.0148338C67.4275 0.0412349 67.6741 0.276556 67.6928 1.42539C67.7166 3.05615 67.7166 4.68325 67.7166 6.31906V7.15702C68.2214 7.16801 68.7267 7.17717 69.2323 7.1848C69.5677 7.19105 69.9019 7.22371 70.2336 7.26156C72.9182 7.56479 74.743 9.37304 74.9558 12.0948C75.1235 14.2263 75.2024 16.3655 75.2412 18.5046C75.2786 20.5642 75.2969 22.6243 75.3151 24.6842C75.3475 28.333 75.3798 31.9812 75.519 35.6254C75.6294 38.5316 75.8853 41.4316 76.1411 44.3319C76.2651 45.7374 76.389 47.1431 76.4965 48.5495C76.9721 54.7607 78.3201 60.8232 79.6793 66.8757C80.1157 68.82 80.7098 70.7279 81.3039 72.6361C81.5684 73.4856 81.8329 74.3352 82.0836 75.1881C82.1338 75.3565 82.1994 75.5202 82.2615 75.6852ZM66.3074 1.45682H62.7453L62.7402 1.67017C62.6656 4.75605 62.593 7.75753 62.7153 10.8251H66.3074V1.45682ZM18.5156 1.89984L16.0413 2.07473C15.9317 5.23585 15.9931 8.40047 16.2252 11.5549H18.8911C18.8285 9.92853 18.766 8.32783 18.7034 6.72728C18.6408 5.12673 18.5782 3.52618 18.5156 1.89984ZM7.18388 58.4312C7.13407 48.3524 7.08427 38.2737 7.36403 28.1949C7.40558 26.7071 7.39416 25.2171 7.38275 23.7305C7.3794 23.2922 7.37604 22.8542 7.37404 22.4167C7.37118 21.7622 7.36996 21.1076 7.36874 20.4533C7.36462 18.2537 7.3605 16.0557 7.29395 13.8602C7.25638 12.8699 7.02359 11.8682 6.75574 10.9055C6.46914 9.87496 5.22881 8.86837 4.40402 8.94513C1.35763 9.22943 1.34396 13.4017 1.33603 15.8158C1.33553 15.9655 1.33506 16.1085 1.33389 16.2434C1.32974 16.7289 1.32522 17.2146 1.3207 17.7005C1.30479 19.4125 1.28885 21.127 1.28885 22.8433L1.28157 25.1759C1.2509 34.9246 1.22022 44.6753 1.27007 54.4271C1.29593 59.5698 1.39743 64.7105 1.49893 69.8513C1.53988 71.9243 1.5808 73.9972 1.61676 76.0702C1.62593 76.6171 1.65055 77.1626 1.6906 77.7062C1.70246 77.8604 1.70614 78.0054 1.71012 78.1617C1.71329 78.2858 1.71663 78.4168 1.72439 78.5655C2.57077 78.5649 3.42483 78.5597 4.29199 78.5545C5.24319 78.5487 6.21016 78.5429 7.20007 78.5429V76.892C7.24467 70.7384 7.21428 64.5848 7.18388 58.4312ZM6.6694 8.46075C6.80023 8.65365 6.92086 8.82609 7.0324 8.98542C7.25695 9.30635 7.44461 9.57448 7.60433 9.85116C8.49045 11.4052 8.53675 13.1266 8.56055 14.853C8.56913 15.504 8.59415 16.1551 8.62033 16.8362C8.63236 17.1489 8.64464 17.468 8.65567 17.7962C12.9594 17.7265 17.2632 17.6595 21.567 17.5948C25.945 17.5278 30.3256 17.4719 34.7086 17.4275C39.0858 17.3822 43.463 17.3532 47.8402 17.3407C52.2174 17.328 56.5946 17.3411 60.9719 17.3796C61.6519 17.386 62.3329 17.3953 63.0146 17.4046C64.236 17.4211 65.4594 17.4376 66.6828 17.4376H72.9482C73.1151 17.4451 73.282 17.4426 73.4489 17.44C73.5323 17.4388 73.6158 17.4376 73.6992 17.4376H74.0497C74.0528 16.8935 74.0307 16.3475 74.0085 15.801C73.9955 15.4792 73.9825 15.1572 73.9746 14.8353C73.9577 13.9072 73.8875 12.9808 73.7643 12.0608C73.5603 10.6023 72.6291 8.7916 70.3387 8.60786C69.4626 8.53736 68.5865 8.47952 67.7104 8.44686V9.59066C67.71 9.76326 67.7173 9.93677 67.7246 10.1104C67.7401 10.4787 67.7557 10.848 67.6979 11.2114C67.584 11.9324 67.3562 12.1627 66.6478 12.1841C65.3173 12.2268 63.9844 12.2193 62.654 12.1841C61.729 12.1589 61.3924 11.8065 61.4024 10.8578C61.4067 10.3952 61.4114 9.93265 61.4165 9.47025C61.4203 9.12108 61.4244 8.77192 61.4287 8.4229C47.6871 8.4313 33.946 8.44228 20.2053 8.45556V11.6077C20.2053 12.9076 19.9437 13.1403 18.6496 13.0535C17.8135 12.9982 16.9787 12.9969 16.1464 12.939C15.1401 12.8685 14.8848 12.6584 14.8572 11.6393C14.8289 10.5797 14.8047 9.52015 14.7847 8.46075H6.6694ZM72.8569 78.4988C72.8786 78.4736 72.8925 78.4425 72.8969 78.4095C72.9658 78.1087 73.0459 77.8295 73.1022 77.5262C72.574 77.5073 72.0496 77.4997 71.5202 77.4997L13.4117 77.4469L13.2998 77.447C12.8174 77.4479 12.2795 77.4489 11.901 77.1197C11.662 76.9108 11.6006 76.6214 11.5118 76.322C11.2847 75.5016 11.1041 74.669 10.9711 73.8279C10.8626 73.2215 10.7558 72.6141 10.6507 72.006C10.2869 69.9029 9.9281 67.8027 9.57432 65.7054C9.32173 64.2373 9.17392 62.7605 9.02572 61.2801C8.96905 60.7139 8.91232 60.1471 8.84965 59.58L8.72593 58.4689C8.60485 57.3839 8.48382 56.2991 8.36904 55.2136V64.1377C8.36927 65.0023 8.36913 65.867 8.369 66.7317C8.36835 70.6691 8.36772 74.6075 8.40159 78.5466L72.7317 78.5316C72.7761 78.5373 72.8209 78.5255 72.8569 78.4988ZM14.4455 76.1508C36.1496 76.1457 57.8538 76.1395 79.5579 76.1319V76.1282C79.9609 76.1282 80.3639 76.0942 80.8545 76.0867C80.7905 75.8265 80.7463 75.6275 80.7002 75.4459C80.6849 75.3859 80.6695 75.3278 80.653 75.2699C79.9788 72.9353 79.3013 70.602 78.6204 68.27C75.8019 58.6186 74.8482 48.6867 74.3475 38.7057C74.2274 36.3098 74.1485 33.9064 74.0872 31.5156C74.0432 29.7623 74.0089 28.0043 73.9745 26.2479L73.9483 24.9144C73.9357 24.2772 73.9143 23.6379 73.8928 22.998C73.8439 21.5369 73.7949 20.073 73.8506 18.6229H51.3684C50.4599 18.6237 49.555 18.6359 48.6499 18.6481C47.9715 18.6572 47.2929 18.6664 46.6124 18.6707C42.2194 18.6934 37.8263 18.7352 33.4333 18.7966C29.0402 18.8578 24.6471 18.9177 20.2541 18.9765C17.7487 19.0114 15.2439 19.0848 12.7393 19.1582C11.8232 19.1851 10.9072 19.212 9.99109 19.237C9.72376 19.2446 9.45643 19.2701 9.18609 19.296C9.05268 19.3089 8.91855 19.3217 8.78331 19.3325C8.77056 19.4796 8.75679 19.6101 8.74416 19.7298C8.71964 19.9622 8.69947 20.1535 8.69947 20.3455C8.68524 20.9225 8.66873 21.5 8.65221 22.0778C8.60767 23.6357 8.56305 25.1962 8.56305 26.7567C8.56387 28.6663 8.51345 30.5753 8.46301 32.4844C8.43622 33.4989 8.40943 34.5136 8.39032 35.5285C8.36278 36.9932 8.35026 38.4628 8.37779 39.9326C8.39042 40.5508 8.38765 41.1698 8.38487 41.7893C8.38132 42.5834 8.37777 43.3784 8.4066 44.1743C8.48673 46.4076 8.73168 48.61 8.97759 50.8214C9.04662 51.4422 9.11574 52.0638 9.18132 52.6869L9.22488 53.0966C9.32369 54.0251 9.42302 54.9582 9.50048 55.8894C10.0516 61.9044 10.9881 67.8775 12.304 73.7713C12.3629 74.037 12.4418 74.2983 12.5206 74.5594C12.5995 74.8203 12.6783 75.0813 12.7371 75.3467C12.871 75.9507 13.2415 76.1734 13.8197 76.1508C14.0275 76.1383 14.2365 76.1508 14.4455 76.1508Z" fill="#9E7D43"/>
</svg>
