<svg width="74" height="80" viewBox="0 0 74 80" fill="none" xmlns="http://www.w3.org/2000/svg">
<path d="M51.9639 24.6432C51.9639 24.6432 50.7409 28.5053 52.536 28.6569C53.6607 28.7519 54.261 28.3826 54.8533 28.0182C55.2064 27.8009 55.5566 27.5855 56.0134 27.4711C56.7454 27.2879 57.0531 26.6393 57.3872 25.9351C57.6111 25.463 57.8469 24.9659 58.2305 24.5674C58.4595 24.3295 58.7763 24.0871 59.1209 23.8234C60.2145 22.9866 61.5884 21.9353 61.3273 20.1331C60.984 17.763 58.1804 15.3813 56.5111 18.1077C56.1098 18.7686 56.0726 19.3123 56.0398 19.7917C55.9945 20.4536 55.9577 20.9928 54.982 21.5478C54.7623 21.6728 54.5576 21.7847 54.3665 21.8891C53.0951 22.5841 52.429 22.9483 51.9639 24.6432Z" fill="#9E7D43"/>
<path d="M50.4761 44.5784C50.5643 44.6461 50.6726 44.6824 50.7838 44.6818C50.8697 44.6816 50.954 44.659 51.0284 44.616L53.2183 43.383C53.3309 43.3163 53.4129 43.2082 53.4467 43.0819C53.4806 42.9555 53.4636 42.8209 53.3995 42.7069C53.3354 42.5929 53.2292 42.5085 53.1036 42.4717C52.9781 42.435 52.8431 42.4489 52.7277 42.5104L50.5377 43.7435C50.4405 43.7974 50.3641 43.8822 50.3204 43.9845C50.2767 44.0867 50.2683 44.2006 50.2965 44.3081C50.3247 44.4157 50.3879 44.5108 50.4761 44.5784Z" fill="#9E7D43"/>
<path d="M54.726 42.1014C54.6287 42.1018 54.5334 42.0739 54.4517 42.021C54.3701 41.968 54.3057 41.8923 54.2665 41.8033C54.2273 41.7142 54.215 41.6157 54.231 41.5197C54.2471 41.4237 54.2909 41.3345 54.3569 41.2631L56.052 39.4036C56.1415 39.3055 56.2663 39.247 56.399 39.241C56.5316 39.2349 56.6612 39.2818 56.7593 39.3714C56.8574 39.4609 56.9159 39.5857 56.9219 39.7184C56.9279 39.851 56.881 39.9807 56.7915 40.0787L55.0965 41.9383C55.0496 41.9899 54.9924 42.0311 54.9285 42.0592C54.8647 42.0872 54.7957 42.1016 54.726 42.1014Z" fill="#9E7D43"/>
<path d="M57.7599 38.3079C57.8398 38.3587 57.9327 38.3855 58.0274 38.3851C58.1119 38.3852 58.195 38.3638 58.2691 38.323C58.3431 38.2823 58.4056 38.2234 58.4508 38.152L59.7968 36.0307C59.8657 35.9186 59.8878 35.7839 59.8582 35.6557C59.8286 35.5275 59.7497 35.4161 59.6386 35.3456C59.5275 35.2751 59.3931 35.2512 59.2645 35.279C59.1359 35.3068 59.0234 35.3842 58.9514 35.4943L57.6054 37.617C57.5343 37.7291 57.5106 37.8649 57.5396 37.9944C57.5685 38.124 57.6478 38.2368 57.7599 38.3079Z" fill="#9E7D43"/>
<path d="M60.7265 34.1869C60.6318 34.1873 60.539 34.1605 60.4591 34.1096C60.347 34.0385 60.2677 33.9257 60.2388 33.7962C60.2098 33.6666 60.2335 33.5308 60.3046 33.4187L61.6506 31.296C61.7226 31.1859 61.8351 31.1086 61.9637 31.0808C62.0923 31.053 62.2267 31.0769 62.3378 31.1474C62.4489 31.2179 62.5278 31.3293 62.5574 31.4575C62.587 31.5857 62.5649 31.7204 62.496 31.8324L61.1499 33.9552C61.1046 34.0263 61.042 34.0849 60.968 34.1254C60.894 34.1659 60.8109 34.1871 60.7265 34.1869Z" fill="#9E7D43"/>
<path d="M63.1363 29.8485C63.2162 29.8984 63.3086 29.9247 63.4028 29.9243C63.479 29.9242 63.5541 29.9068 63.6226 29.8734C63.691 29.8399 63.7508 29.7913 63.7976 29.7311L65.3582 27.7601C65.3991 27.7085 65.4294 27.6494 65.4474 27.5861C65.4654 27.5229 65.4708 27.4567 65.4632 27.3913C65.4556 27.326 65.4353 27.2627 65.4033 27.2052C65.3712 27.1478 65.3282 27.0972 65.2767 27.0563C65.2251 27.0154 65.166 26.9852 65.1027 26.9671C65.0395 26.9491 64.9733 26.9438 64.9079 26.9513C64.8426 26.9589 64.7793 26.9793 64.7219 27.0112C64.6644 27.0433 64.6138 27.0863 64.5729 27.1378L63.0109 29.1132C62.952 29.1868 62.9152 29.2756 62.9047 29.3691C62.8941 29.4628 62.9103 29.5574 62.9513 29.6423C62.9923 29.7271 63.0564 29.7986 63.1363 29.8485Z" fill="#9E7D43"/>
<path d="M66.4639 26.0751C66.3653 26.0755 66.2688 26.0467 66.1865 25.9923C66.1043 25.9379 66.04 25.8604 66.0017 25.7695C65.9635 25.6786 65.953 25.5784 65.9716 25.4816C65.9902 25.3848 66.0371 25.2956 66.1063 25.2254L67.8629 23.4288C67.908 23.3786 67.9628 23.338 68.024 23.3095C68.0853 23.281 68.1516 23.2652 68.2191 23.263C68.2866 23.2608 68.3538 23.2723 68.4168 23.2968C68.4797 23.3213 68.5371 23.3582 68.5853 23.4054C68.6336 23.4527 68.6718 23.5092 68.6977 23.5715C68.7236 23.6339 68.7366 23.7009 68.7359 23.7684C68.7352 23.836 68.7209 23.9027 68.6938 23.9645C68.6666 24.0263 68.6273 24.082 68.5781 24.1283L66.8215 25.9249C66.7748 25.9724 66.7192 26.0101 66.6578 26.0359C66.5964 26.0617 66.5305 26.075 66.4639 26.0751Z" fill="#9E7D43"/>
<path d="M59.6339 44.2973C60.6355 43.2652 61.6384 42.2316 62.7134 41.2817C62.7303 41.2643 62.7534 41.2542 62.7776 41.2538C62.8019 41.2534 62.8254 41.2627 62.8428 41.2796C62.8603 41.2965 62.8703 41.3196 62.8707 41.3439C62.8709 41.3573 62.8682 41.3705 62.8629 41.3825C62.8585 41.3923 62.8525 41.4012 62.845 41.409C61.7763 42.7053 60.5822 43.8942 59.3896 45.0817L59.2427 45.228C59.0604 45.4095 58.8783 45.5911 58.6968 45.7732C57.2793 47.195 55.8474 48.6011 54.3283 49.9128C54.3188 49.9223 54.306 49.9276 54.2926 49.9276C54.2792 49.9276 54.2663 49.9223 54.2568 49.9128C54.2473 49.9033 54.242 49.8904 54.242 49.877C54.242 49.8705 54.2433 49.8641 54.2457 49.8581C54.2464 49.8563 54.2473 49.8544 54.2483 49.8526C54.249 49.8513 54.2498 49.85 54.2506 49.8488C54.2524 49.8461 54.2545 49.8436 54.2568 49.8413C55.4917 48.482 56.789 47.1778 58.0827 45.8772C58.2021 45.7572 58.3215 45.6372 58.4407 45.5171C58.8392 45.1163 59.2335 44.71 59.628 44.3034L59.6304 44.3009L59.6339 44.2973Z" fill="#9E7D43"/>
<path d="M65.3625 41.625C63.5902 43.0712 61.9667 44.699 60.3561 46.3182C58.7454 47.9374 57.1462 49.5767 55.6872 51.3489C55.6793 51.3596 55.6754 51.3728 55.6763 51.386C55.6772 51.3993 55.6828 51.4119 55.6921 51.4214C55.7015 51.4309 55.7139 51.4367 55.7271 51.4378C55.7404 51.439 55.7536 51.4354 55.7644 51.4276C57.1114 50.197 58.4019 48.9081 59.6919 47.6199L59.6922 47.6196L59.6927 47.6191L59.7097 47.6022C59.8793 47.4328 60.0489 47.2635 60.2187 47.0942C60.3711 46.9422 60.5237 46.7903 60.6765 46.6386C61.1591 46.1594 61.6468 45.6846 62.1346 45.2097L62.1356 45.2088C63.2869 44.0879 64.4387 42.9665 65.5256 41.7852C65.5468 41.7636 65.5586 41.7344 65.5583 41.7041C65.5582 41.6926 65.5564 41.6813 65.553 41.6706C65.5474 41.653 65.5376 41.6368 65.5241 41.6236C65.5025 41.6023 65.4733 41.5905 65.443 41.5908C65.4127 41.5911 65.3837 41.6034 65.3625 41.625Z" fill="#9E7D43"/>
<path d="M38.6825 30.7367C38.552 30.7366 38.4267 30.6852 38.3335 30.5937L36.5369 28.84C36.4485 28.7459 36.3999 28.6213 36.4012 28.4922C36.4025 28.3631 36.4536 28.2395 36.5439 28.1472C36.6341 28.0549 36.7566 28.001 36.8856 27.9969C37.0147 27.9927 37.1403 28.0385 37.2364 28.1248L39.0358 29.8799C39.1069 29.9496 39.1556 30.0387 39.1757 30.1361C39.1959 30.2335 39.1866 30.3347 39.149 30.4268C39.1114 30.5189 39.0472 30.5977 38.9646 30.6531C38.8821 30.7086 38.7848 30.7382 38.6854 30.7382L38.6825 30.7367Z" fill="#9E7D43"/>
<path d="M39.7145 35.377C39.8019 35.4437 39.9087 35.4798 40.0185 35.48C40.0629 35.4798 40.1072 35.474 40.1501 35.4628C40.2136 35.4457 40.2731 35.4163 40.3251 35.3762C40.3772 35.3361 40.4208 35.2861 40.4535 35.2291C40.4862 35.1721 40.5073 35.1091 40.5156 35.0439C40.524 34.9787 40.5193 34.9126 40.502 34.8492L39.8454 32.4175C39.8107 32.2893 39.7265 32.1801 39.6113 32.114C39.4961 32.0478 39.3593 32.0302 39.2311 32.0649C39.1029 32.0996 38.9937 32.1838 38.9275 32.299C38.8948 32.3561 38.8736 32.419 38.8652 32.4843C38.8568 32.5495 38.8613 32.6157 38.8785 32.6792L39.535 35.1109C39.5642 35.2169 39.6272 35.3103 39.7145 35.377Z" fill="#9E7D43"/>
<path d="M41.097 39.7784C40.9935 39.7781 40.8925 39.7458 40.808 39.6858C40.7235 39.6259 40.6595 39.5413 40.625 39.4436L39.7925 37.072C39.7485 36.9466 39.7561 36.8089 39.8137 36.6891C39.8712 36.5693 39.974 36.4774 40.0993 36.4334C40.2247 36.3894 40.3624 36.3969 40.4822 36.4545C40.602 36.512 40.694 36.6147 40.738 36.7402L41.5705 39.1118C41.6144 39.2374 41.6067 39.3752 41.549 39.4951C41.4914 39.615 41.3885 39.7071 41.263 39.7512C41.2095 39.7693 41.1535 39.7785 41.097 39.7784Z" fill="#9E7D43"/>
<path d="M43.4117 43.7581C43.4756 43.7864 43.5447 43.8009 43.6146 43.8007C43.7116 43.8008 43.8065 43.7728 43.8879 43.7201C43.9693 43.6673 44.0336 43.592 44.073 43.5033C44.1124 43.4147 44.1252 43.3165 44.1098 43.2208C44.0945 43.125 44.0516 43.0357 43.9865 42.9639L42.2986 41.1043C42.2095 41.0059 42.0848 40.9469 41.9522 40.9403C41.8195 40.9337 41.6897 40.9801 41.5913 41.0693C41.4928 41.1584 41.4338 41.283 41.4273 41.4157C41.4207 41.5483 41.4671 41.6782 41.5562 41.7766L43.2441 43.6362C43.2908 43.6882 43.3479 43.7297 43.4117 43.7581Z" fill="#9E7D43"/>
<path d="M35.9001 44.9174C35.9012 44.9217 35.9018 44.9261 35.9018 44.9307C36.2623 49.4608 36.4468 54.0495 36.4725 58.5925C36.4725 58.6069 36.4668 58.6207 36.4566 58.6309C36.4464 58.6411 36.4326 58.6469 36.4182 58.6469C36.4097 58.6469 36.4014 58.6449 36.3939 58.6411C36.3887 58.6386 36.3839 58.6351 36.3798 58.6309C36.3696 58.6207 36.3638 58.6069 36.3638 58.5925C36.0134 54.0624 35.8146 49.4751 35.7988 44.9307C35.7988 44.917 35.8042 44.904 35.8139 44.8943C35.8236 44.8846 35.8367 44.8792 35.8503 44.8792C35.864 44.8792 35.8771 44.8846 35.8867 44.8943C35.8932 44.9007 35.8977 44.9087 35.9001 44.9174Z" fill="#9E7D43"/>
<path d="M18.3064 39.641C18.1938 39.6418 18.0843 39.6047 17.9955 39.5356C17.9067 39.4665 17.8437 39.3695 17.8168 39.2603C17.7898 39.151 17.8005 39.0359 17.847 38.9334C17.8935 38.8309 17.9732 38.7472 18.0732 38.6955L20.3004 37.5312C20.4182 37.4697 20.5555 37.4576 20.6823 37.4974C20.809 37.5372 20.9148 37.6258 20.9762 37.7436C21.0377 37.8614 21.0498 37.9987 21.01 38.1255C20.9702 38.2522 20.8816 38.358 20.7638 38.4195L18.5367 39.5824C18.4658 39.6203 18.3868 39.6405 18.3064 39.641Z" fill="#9E7D43"/>
<path d="M22.3551 36.0881C22.4369 36.1416 22.5327 36.1699 22.6305 36.1694C22.6988 36.1697 22.7665 36.1559 22.8293 36.1288C22.8921 36.1017 22.9486 36.062 22.9952 36.0121L24.7117 34.1797C24.7591 34.1323 24.7965 34.0758 24.8216 34.0137C24.8467 33.9515 24.8591 33.885 24.858 33.818C24.857 33.7509 24.8425 33.6848 24.8153 33.6235C24.7882 33.5622 24.7491 33.507 24.7002 33.4611C24.6513 33.4151 24.5938 33.3795 24.5309 33.3563C24.468 33.3331 24.4011 33.3227 24.3341 33.3259C24.2672 33.329 24.2015 33.3456 24.1411 33.3745C24.0806 33.4035 24.0266 33.4443 23.9822 33.4946L22.2657 35.3269C22.1985 35.3979 22.1536 35.4871 22.1366 35.5834C22.1196 35.6797 22.1312 35.7788 22.17 35.8686C22.2089 35.9583 22.2732 36.0346 22.3551 36.0881Z" fill="#9E7D43"/>
<path d="M26.1064 32.4547C26.0011 32.4555 25.8983 32.423 25.8126 32.3618C25.7269 32.3007 25.6627 32.214 25.6293 32.1142C25.5958 32.0144 25.5947 31.9066 25.6262 31.8062C25.6577 31.7057 25.7201 31.6177 25.8046 31.5549L27.8071 30.0444C27.8595 30.003 27.9196 29.9725 27.9839 29.9547C28.0482 29.9368 28.1155 29.932 28.1817 29.9405C28.2479 29.949 28.3117 29.9707 28.3694 30.0042C28.4271 30.0378 28.4775 30.0825 28.5177 30.1359C28.5578 30.1892 28.5869 30.25 28.6032 30.3147C28.6195 30.3795 28.6227 30.4468 28.6126 30.5128C28.6026 30.5788 28.5794 30.642 28.5445 30.6989C28.5095 30.7558 28.4636 30.8051 28.4093 30.844L26.3996 32.3545C26.3152 32.4186 26.2124 32.4537 26.1064 32.4547Z" fill="#9E7D43"/>
<path d="M30.1431 29.2961C30.233 29.3724 30.3469 29.4145 30.4648 29.415C30.5208 29.4151 30.5764 29.406 30.6293 29.3879L33.0024 28.5639C33.0667 28.5443 33.1264 28.5118 33.1779 28.4685C33.2293 28.4252 33.2716 28.372 33.302 28.312C33.3325 28.252 33.3506 28.1865 33.3551 28.1194C33.3597 28.0523 33.3507 27.985 33.3287 27.9214C33.3067 27.8579 33.2721 27.7994 33.227 27.7495C33.1819 27.6996 33.1271 27.6593 33.0661 27.631C33.0051 27.6028 32.939 27.5871 32.8717 27.5849C32.8045 27.5828 32.7375 27.5942 32.6748 27.6185L30.3003 28.4424C30.1892 28.4817 30.0954 28.5589 30.0356 28.6605C29.9758 28.7622 29.9538 28.8816 29.9735 28.9979C29.9932 29.1141 30.0532 29.2198 30.1431 29.2961Z" fill="#9E7D43"/>
<path d="M18.9186 47.9789C18.8986 46.9475 18.8757 45.9162 18.8256 44.8849C18.8127 44.6195 18.8087 44.3447 18.8046 44.0662C18.7932 43.2942 18.7814 42.4937 18.5796 41.7852C18.571 41.7537 18.5181 41.7494 18.5123 41.7852C18.3939 42.4377 18.4389 43.1433 18.4829 43.8325C18.5027 44.142 18.5222 44.4482 18.5266 44.7447C18.5395 45.2839 18.5553 45.8227 18.571 46.3616C18.5867 46.9006 18.6025 47.4395 18.6153 47.9789C18.6496 49.4146 18.6776 50.851 18.7055 52.2872L18.7056 52.2884C18.7145 52.7485 18.7235 53.2086 18.7326 53.6686C18.7378 53.9282 18.743 54.1877 18.7484 54.4472C18.7484 54.4639 18.755 54.4799 18.7668 54.4917C18.774 54.4989 18.7827 54.5041 18.7922 54.5072C18.7983 54.5091 18.8047 54.5101 18.8113 54.5101C18.828 54.5101 18.844 54.5035 18.8558 54.4917C18.8676 54.4799 18.8742 54.4639 18.8742 54.4472C18.95 52.293 18.9601 50.1345 18.9186 47.9789Z" fill="#9E7D43"/>
<path d="M6.70314 14.2775C6.5239 14.2922 6.34933 14.3421 6.18939 14.4244C5.86665 14.5903 5.62298 14.8775 5.51193 15.223C5.40089 15.5685 5.43156 15.9439 5.5972 16.2667L6.29829 17.6312L4.80332 18.7085C4.50894 18.9209 4.31101 19.2416 4.25307 19.6C4.19513 19.9584 4.28191 20.3251 4.49435 20.6195C4.70704 20.9135 5.0277 21.1112 5.38597 21.1691C5.74423 21.2271 6.11085 21.1405 6.40537 20.9285L7.56365 20.0938L8.2549 21.4391C8.42107 21.7619 8.70857 22.0057 9.05428 22.1167C9.39998 22.2277 9.77561 22.197 10.0987 22.0313C10.4215 21.8651 10.6652 21.5776 10.7763 21.2319C10.8873 20.8862 10.8566 20.5106 10.6909 20.1875L9.81054 18.4747L11.1257 17.5269C11.2716 17.4219 11.3953 17.289 11.4899 17.1361C11.5844 16.9832 11.6479 16.8132 11.6767 16.6357C11.7056 16.4583 11.6992 16.2769 11.6579 16.1019C11.6166 15.9269 11.5412 15.7618 11.4361 15.6159C11.2234 15.3214 10.9025 15.1235 10.5438 15.0655C10.1852 15.0076 9.81829 15.0944 9.52366 15.3069L8.54492 16.0122L8.03318 15.0166C7.95105 14.8566 7.83819 14.7143 7.70107 14.598C7.56394 14.4816 7.40522 14.3934 7.23399 14.3384C7.06276 14.2834 6.88238 14.2627 6.70314 14.2775Z" fill="#9E7D43"/>
<path d="M10.2254 26.8368C10.311 26.8995 10.4145 26.9333 10.5207 26.9333C10.5721 26.9334 10.6232 26.9257 10.6723 26.9104C10.7988 26.8703 10.9041 26.7816 10.9653 26.6639C11.0264 26.5462 11.0384 26.409 10.9984 26.2825L10.2403 23.8865C10.2223 23.8218 10.1914 23.7613 10.1495 23.7088C10.1076 23.6562 10.0555 23.6126 9.99644 23.5806C9.93735 23.5486 9.87241 23.5289 9.80551 23.5225C9.7386 23.5161 9.6711 23.5233 9.60702 23.5436C9.54294 23.5638 9.4836 23.5967 9.43254 23.6405C9.38147 23.6842 9.33972 23.7377 9.30979 23.7979C9.27985 23.858 9.26234 23.9236 9.25829 23.9907C9.25424 24.0578 9.26373 24.125 9.28622 24.1883L10.0443 26.5843C10.0763 26.6855 10.1397 26.774 10.2254 26.8368Z" fill="#9E7D43"/>
<path d="M12.2057 32.0112C12.0994 32.011 11.9959 31.9768 11.9102 31.9138C11.8246 31.8508 11.7613 31.7622 11.7294 31.6608L10.9712 29.2649C10.9364 29.1399 10.9515 29.0062 11.0133 28.8921C11.0751 28.778 11.1788 28.6923 11.3025 28.6532C11.4262 28.614 11.5603 28.6244 11.6765 28.6823C11.7927 28.7401 11.8819 28.8407 11.9253 28.963L12.6834 31.359C12.7234 31.4855 12.7115 31.6227 12.6503 31.7404C12.5892 31.8581 12.4838 31.9468 12.3573 31.9869C12.3083 32.0026 12.2572 32.0108 12.2057 32.0112Z" fill="#9E7D43"/>
<path d="M14.5371 37.2298C14.6149 37.2764 14.704 37.301 14.7947 37.3009C14.8811 37.3008 14.966 37.2782 15.0412 37.2355C15.1163 37.1928 15.1791 37.1314 15.2234 37.0572C15.2678 36.9831 15.2922 36.8987 15.2943 36.8123C15.2963 36.7259 15.276 36.6404 15.2353 36.5642L14.0509 34.3471C13.9862 34.234 13.8799 34.1507 13.7547 34.1147C13.6295 34.0787 13.4952 34.093 13.3804 34.1544C13.2655 34.2159 13.1791 34.3197 13.1395 34.4438C13.0999 34.5679 13.1103 34.7026 13.1684 34.8191L14.3527 37.0363C14.3955 37.1163 14.4592 37.1832 14.5371 37.2298Z" fill="#9E7D43"/>
<path d="M2.51181 11.2045C2.55091 12.6597 2.58619 14.1154 2.61766 15.5715C2.6806 18.5296 2.71064 21.4863 2.65771 24.4401C2.65614 24.4504 2.652 24.4602 2.64578 24.4685C2.64308 24.4721 2.63997 24.4754 2.63651 24.4783C2.62509 24.4882 2.61054 24.4936 2.59549 24.4936C2.58044 24.4936 2.56588 24.4882 2.55447 24.4783C2.54305 24.4685 2.53553 24.455 2.53327 24.4401C2.43072 21.7266 2.36926 19.0083 2.30779 16.2896L2.29153 15.5715C2.25815 14.1163 2.22 12.6607 2.17709 11.2045C2.15563 10.4536 2.14133 9.70261 2.12846 8.95165C2.12587 8.78546 2.116 8.6142 2.10601 8.44091C2.0774 7.94446 2.04784 7.43142 2.18567 6.97338C2.18594 6.97223 2.18629 6.97108 2.1867 6.96996C2.18843 6.96539 2.19138 6.96134 2.19525 6.95826C2.20005 6.95446 2.206 6.9524 2.21213 6.9524C2.21827 6.9524 2.22422 6.95446 2.22903 6.95826C2.23094 6.95976 2.23262 6.96151 2.23404 6.96347C2.2362 6.96643 2.23775 6.96979 2.2386 6.97338C2.40863 7.42681 2.41237 7.9482 2.41598 8.45146C2.4172 8.62136 2.41841 8.78919 2.42599 8.95165C2.46032 9.70261 2.49178 10.4536 2.51181 11.2045Z" fill="#9E7D43"/>
<path fill-rule="evenodd" clip-rule="evenodd" d="M17.1334 79.8655C17.2265 79.9516 17.3485 79.9995 17.4753 80H17.4939C17.6267 79.9943 17.752 79.9368 17.8429 79.8398L34.9864 61.3789L49.8857 79.2278C49.9118 79.2801 49.947 79.3279 49.9903 79.3687C50.0042 79.3818 50.0187 79.394 50.0339 79.4053L50.1673 79.5651C50.2118 79.6187 50.267 79.6623 50.3293 79.6933C50.3916 79.7244 50.4597 79.7421 50.5292 79.7454C50.5985 79.748 50.6676 79.7366 50.7325 79.7121C50.7973 79.6875 50.8566 79.6502 50.9068 79.6023L73.0695 57.2479C73.1192 57.1972 73.1576 57.1366 73.1822 57.0701C73.2069 57.0035 73.2172 56.9325 73.2126 56.8617L69.5379 1.69516C69.532 1.60733 69.5032 1.52257 69.4541 1.44945C69.4051 1.37632 69.3376 1.31741 69.2586 1.27868C69.1795 1.23995 69.0916 1.22273 69.0038 1.22881C68.916 1.23489 68.8313 1.26401 68.7583 1.31325L46.577 16.1895L34.1024 3.87796C34.0195 3.79631 33.9107 3.74613 33.7948 3.73593C33.6789 3.72577 33.5631 3.75626 33.4673 3.82219L17.0691 15.1224L0.8411 0.131733C0.768969 0.0656954 0.679118 0.0221825 0.58259 0.0065025C0.486061 -0.00917751 0.387059 0.00363889 0.29773 0.04345C0.208402 0.0832612 0.132643 0.148286 0.0797555 0.230528C0.0268682 0.312804 -0.000845746 0.408735 1.9666e-05 0.506517L0.904038 64.5087C0.905273 64.5761 0.919946 64.6426 0.947211 64.7042C0.974475 64.7659 1.01378 64.8214 1.06281 64.8677L17.1334 79.8655ZM72.1984 56.6929L50.7989 78.2878L49.5945 58.6295C50.136 58.4684 53.3372 57.7847 56.4167 63.0883C57.6926 65.2811 59.4621 66.2981 61.3974 65.9491C64.4227 65.4027 67.3693 61.5892 68.106 57.2665C68.249 56.4226 68.3778 55.6258 68.5022 54.8491L68.503 54.8443C69.2131 50.422 69.7409 47.1355 71.4849 45.9855L72.1984 56.6929ZM71.4114 44.8833L69.6534 18.5027C68.8557 18.6902 68.0396 18.791 67.2192 18.8028C66.0219 18.8028 64.9863 18.5439 64.1238 18.0261C61.9467 16.723 61.3359 14.0982 60.9325 12.3617L60.9257 12.3325C60.8399 11.9658 60.766 11.6496 60.6879 11.389C60.6476 11.2407 60.5755 11.1029 60.4767 10.9851C60.378 10.8673 60.2548 10.7723 60.1157 10.7067C59.0472 10.1689 56.936 10.731 56.2122 10.9928C56.1647 11.0115 56.1148 11.0228 56.0641 11.0264L47.0483 17.072L49.5323 57.6155C50.6617 57.3653 54.1205 57.1415 57.2821 62.5819C58.3463 64.4157 59.7138 65.2396 61.2186 64.9664C63.8134 64.4986 66.4596 60.9698 67.119 57.0992C67.2441 56.3699 67.3572 55.6658 67.4668 54.983L67.5138 54.6904L67.5146 54.6859C68.3189 49.6769 68.904 46.0333 71.4114 44.8833ZM48.5445 57.9571L47.7477 44.9327L45.6744 44.8334C45.5416 44.8272 45.4167 44.7684 45.3273 44.6701C45.2378 44.5718 45.1911 44.4419 45.1973 44.3092C45.2036 44.1764 45.2623 44.0515 45.3606 43.9621C45.459 43.8726 45.5888 43.8259 45.7216 43.8321L47.6861 43.9262L46.0427 17.0644L40.4818 11.5788C40.3423 13.4826 39.1615 16.0124 37.2621 16.6058C36.0451 16.9863 35.0453 18.8102 34.6444 19.7343L35.2731 60.1971C35.3175 60.2251 35.3574 60.26 35.3912 60.3004L41.4878 67.6072C41.5993 66.4856 41.8644 65.3827 42.2771 64.3299C43.083 62.2392 44.8206 59.4895 48.5445 57.9571ZM34.4248 5.60378L39.4894 10.5998L39.4861 10.6105L39.4837 10.619L39.4823 10.6241L39.4806 10.6309C39.4645 10.696 39.4616 10.7636 39.4721 10.8298C39.691 12.5234 38.5137 15.1653 36.9632 15.6502C35.9757 15.959 35.1804 16.844 34.6128 17.7011L34.4248 5.60378ZM33.4151 5.07397L33.6401 19.5549L33.6303 19.5796C32.5447 21.3647 31.1829 22.1357 29.5851 21.8682C26.6385 21.3733 23.6733 17.587 23.38 16.1952C23.0678 14.7117 21.8622 14.0306 20.8019 13.7727L33.4151 5.07397ZM17.3698 16.1397L19.5611 14.6284C19.5826 14.6337 19.6045 14.6377 19.6266 14.6402C19.6483 14.6427 19.6703 14.6437 19.6924 14.6432H19.6952C19.8241 14.643 22.0285 14.6403 22.4002 16.4041C22.7321 17.9804 25.8904 22.2645 29.4192 22.8567C29.6749 22.8998 29.9338 22.9218 30.1931 22.9225C31.2521 22.9225 32.5086 22.5432 33.666 21.2231L34.2789 60.6695L26.2237 69.344C26.2557 66.1544 25.5316 63.8837 24.0223 62.426C22.4717 60.928 20.2401 60.428 17.7352 60.367L17.3698 16.1397ZM16.8816 78.2598L16.7422 61.3811C15.1982 61.4111 13.4665 61.5711 11.562 61.7723C8.05894 62.1427 5.0794 60.545 2.94952 57.1478C2.50293 56.4223 2.11029 55.6665 1.77414 54.8867L1.90676 64.2812L16.8816 78.2598ZM16.3682 16.1094L16.7338 60.3644C15.0305 60.3941 13.2308 60.5843 11.4533 60.7724C8.3207 61.1043 5.7474 59.7125 3.80776 56.6343C2.87842 55.1198 2.19344 53.4684 1.77801 51.7409C1.7714 51.6814 1.75421 51.6237 1.72732 51.5705L1.66216 46.9543C1.96446 46.8378 2.17358 46.7329 2.36956 46.6346L2.37033 46.6342L2.37099 46.6339C3.02373 46.3063 3.53283 46.0508 6.85882 45.6774C11.522 45.1539 10.7638 43.353 9.83121 42.5305C9.5872 42.3153 9.29141 42.1488 8.95734 41.9609C8.01454 41.4305 6.76693 40.7285 5.51853 38.275C4.25552 35.7928 2.37468 35.6533 1.50388 35.7416L1.02276 1.6594L16.4165 15.8905C16.3843 15.9582 16.3675 16.0329 16.3682 16.1094ZM23.33 63.1498C22.0272 61.8921 20.1433 61.4343 17.7436 61.3814L17.8835 78.3255L25.1783 70.4698C25.4016 66.9615 24.7964 64.5669 23.33 63.1498ZM48.6093 59.0158C46.0445 60.156 44.2382 62.0475 43.2255 64.6531C42.7162 65.9549 42.4464 67.3379 42.4291 68.7354L49.7399 77.4973L48.6093 59.0158ZM60.5649 9.81272C59.9222 9.49029 59.0992 9.44415 58.3222 9.51222L68.5952 2.62353L69.5856 17.485C67.5064 17.9941 65.8444 17.8871 64.643 17.1665C62.8307 16.0808 62.3 13.7993 61.9123 12.1329L61.9035 12.095C61.8181 11.73 61.7377 11.3863 61.652 11.1001C61.5718 10.821 61.4335 10.562 61.2461 10.3402C61.0588 10.1183 60.8266 9.93855 60.5649 9.81272Z" fill="#9E7D43"/>
</svg>
