<svg width="29" height="39" fill="none" xmlns="http://www.w3.org/2000/svg"><path d="M18.207 23.027c-.076-.617.029-.872 4.555-1.481 4.525-.609 5.722-3.553 5.106-4.918-.842-1.875-3.684-.232-3.88-1.647-.196-1.415 5.463-3.133 3.62-6.27-.727-1.239-2.71-.145-3.443-1.339-.733-1.193 1.901-4.54-.84-6.122-2.637-1.523-4.312 2.37-5.723 2.334-1.41-.037-1.444-2.303-2.88-2.313-3.643-.02-2.293 5.731-3.62 6.27-1.328.539-1.322-2.745-3.367-2.537-1.485.152-3.444 2.656-1.706 6.882 1.738 4.225 1.573 4.445.994 4.684-.96.404-2.315-3.395-3.868-2.084-2.936 2.47 2.66 8.205 1.545 9.102-1.115.898-2.03-1.866-3.527-.418-1.703 1.648.913 5.46 1.318 6.315.404.855 2.334 3.084.993 5.51C2.142 37.421.97 38.082 1.82 38.482c.776.538.762-.806 2.188-3.184C5.433 32.92 8.354 33.48 9.295 33.4c.941-.082 5.548.294 6.128-2.017.501-2.012-2.346-1.43-2.126-2.845.22-1.415 7.967.593 8.663-3.195.345-2.009-3.623-1.283-3.753-2.316Z" fill="#9E7D43"/></svg>