<svg width="50" height="50" fill="none" xmlns="http://www.w3.org/2000/svg"><g filter="url(#a)"><circle cx="25" cy="25" r="25" transform="rotate(-180 25 25)" fill="#9E7D43"/></g><path d="M16.731 25.715a1 1 0 0 1 0-1.43l9.82-9.601a1 1 0 0 1 1.398 0l2.32 2.268a1 1 0 0 1 0 1.43L23.5 25l6.769 6.618a1 1 0 0 1 0 1.43l-2.32 2.268a1 1 0 0 1-1.398 0l-9.82-9.6Z" fill="#fff"/><defs><filter id="a" x="-60" y="-60" width="170" height="170" filterUnits="userSpaceOnUse" color-interpolation-filters="sRGB"><feFlood flood-opacity="0" result="BackgroundImageFix"/><feGaussianBlur in="BackgroundImageFix" stdDeviation="30"/><feComposite in2="SourceAlpha" operator="in" result="effect1_backgroundBlur_309_137"/><feBlend in="SourceGraphic" in2="effect1_backgroundBlur_309_137" result="shape"/></filter></defs></svg>